<?xml version="1.0" encoding="UTF-8" standalone="no"?>
<!-- Created with Inkscape (http://www.inkscape.org/) -->

<svg
   xmlns:dc="http://purl.org/dc/elements/1.1/"
   xmlns:cc="http://creativecommons.org/ns#"
   xmlns:rdf="http://www.w3.org/1999/02/22-rdf-syntax-ns#"
   xmlns:svg="http://www.w3.org/2000/svg"
   xmlns="http://www.w3.org/2000/svg"
   xmlns:sodipodi="http://sodipodi.sourceforge.net/DTD/sodipodi-0.dtd"
   xmlns:inkscape="http://www.inkscape.org/namespaces/inkscape"
   width="744.09448819"
   height="1052.3622047"
   id="svg2"
   version="1.1"
   inkscape:version="0.48.4 r9939"
   sodipodi:docname="arrow.svg">
  <defs
     id="defs4" />
  <sodipodi:namedview
     id="base"
     pagecolor="#ffffff"
     bordercolor="#666666"
     borderopacity="1.0"
     inkscape:pageopacity="0.0"
     inkscape:pageshadow="2"
     inkscape:zoom="0.54816176"
     inkscape:cx="435.75855"
     inkscape:cy="1180.2862"
     inkscape:document-units="px"
     inkscape:current-layer="layer1"
     showgrid="false"
     inkscape:window-width="838"
     inkscape:window-height="978"
     inkscape:window-x="833"
     inkscape:window-y="0"
     inkscape:window-maximized="0" />
  <metadata
     id="metadata7">
    <rdf:RDF>
      <cc:Work
         rdf:about="">
        <dc:format>image/svg+xml</dc:format>
        <dc:type
           rdf:resource="http://purl.org/dc/dcmitype/StillImage" />
        <dc:title></dc:title>
      </cc:Work>
    </rdf:RDF>
  </metadata>
  <g
     inkscape:label="Layer 1"
     inkscape:groupmode="layer"
     id="layer1">
    <path
       style="fill:#483737;fill-opacity:1;stroke:#000000;stroke-width:1.56590724;stroke-linecap:butt;stroke-linejoin:miter;stroke-miterlimit:4;stroke-opacity:1;stroke-dashoffset:0"
       d="M 202.81326,146.20879 97.716288,140.23214 3.580339,194.02205 134.00144,193.60914 z"
       id="path3821-8"
       inkscape:connector-curvature="0"
       sodipodi:nodetypes="ccccc" />
    <path
       style="fill:#e9c6af;fill-opacity:1;stroke:#4b4b4b;stroke-width:0;stroke-linecap:butt;stroke-linejoin:miter;stroke-miterlimit:4;stroke-opacity:1;stroke-dasharray:none;stroke-dashoffset:0"
       d="m 140.60565,146.64898 -24.28903,-3.2249 -91.807385,49.34098 41.96495,-0.37876 z"
       id="path3821-4-2"
       inkscape:connector-curvature="0"
       sodipodi:nodetypes="ccccc" />
    <path
       style="fill:#e9c6af;fill-opacity:1;stroke:#4b4b4b;stroke-width:0;stroke-linecap:butt;stroke-linejoin:miter;stroke-miterlimit:4;stroke-opacity:1;stroke-dasharray:none;stroke-dashoffset:0"
       d="m 191.88156,146.48773 -24.28903,-3.2249 -91.807385,49.34098 41.964945,-0.37876 z"
       id="path3821-4-8-4"
       inkscape:connector-curvature="0"
       sodipodi:nodetypes="ccccc" />
    <path
       style="fill:#483737;fill-opacity:1;stroke:#000000;stroke-width:1.53800607;stroke-linecap:butt;stroke-linejoin:miter;stroke-miterlimit:4;stroke-opacity:1;stroke-dashoffset:0"
       d="M 203.1497,122.96701 98.038013,128.73177 3.8888876,76.848892 134.32824,77.247164 z"
       id="path3821"
       inkscape:connector-curvature="0"
       sodipodi:nodetypes="ccccc" />
    <path
       style="fill:#e9c6af;fill-opacity:1;stroke:#4b4b4b;stroke-width:0;stroke-linecap:butt;stroke-linejoin:miter;stroke-miterlimit:4;stroke-opacity:1;stroke-dasharray:none;stroke-dashoffset:0"
       d="m 140.92814,124.23592 -24.28903,3.2249 -91.807376,-49.340975 41.964944,0.37876 z"
       id="path3821-4"
       inkscape:connector-curvature="0"
       sodipodi:nodetypes="ccccc" />
    <path
       style="fill:#e9c6af;fill-opacity:1;stroke:#4b4b4b;stroke-width:0;stroke-linecap:butt;stroke-linejoin:miter;stroke-miterlimit:4;stroke-opacity:1;stroke-dasharray:none;stroke-dashoffset:0"
       d="m 192.20405,124.39717 -24.28903,3.2249 -91.807379,-49.340978 41.964939,0.37876 z"
       id="path3821-4-8"
       inkscape:connector-curvature="0"
       sodipodi:nodetypes="ccccc" />
    <path
       style="fill:#d38d5f;fill-opacity:1;stroke:#000000;stroke-width:1.08944248999999990;stroke-linecap:butt;stroke-linejoin:miter;stroke-miterlimit:4;stroke-opacity:1;stroke-dashoffset:0"
       d="m 63.43433,121.29166 c 159.14922,3.57143 316.15559,5 473.16196,0 l 0,27.68467 c -157.72065,-2.14286 -314.72702,-2.85715 -473.16196,0 -36.02951,-4.21146 -37.39772,-21.64893 0,-27.68467 z"
       id="rect3818"
       inkscape:connector-curvature="0"
       sodipodi:nodetypes="ccccc" />
    <path
       style="fill:#373748;fill-opacity:1;stroke:#000000;stroke-width:2;stroke-linecap:butt;stroke-linejoin:miter;stroke-miterlimit:4;stroke-opacity:1;stroke-dasharray:none;stroke-dashoffset:0"
       d="m 642.46552,135.27188 c -29.71913,28.20143 -57.51445,38.73481 -101.69335,34.75277 1.69119,-7.76798 5.65675,-11.4147 4.12826,-13.68464 -2.69075,-3.99599 -11.89401,1.22511 -14.72989,4.4612 -0.49473,-10.32159 -0.62717,-15.55951 -0.62717,-25.52933 0,-9.96983 -0.1201,-17.60685 0.43776,-25.52933 2.61491,2.79415 11.57025,8.57929 14.74274,4.12974 1.58677,-2.22551 -3.61622,-9.54992 -4.04361,-13.48559 42.35594,-4.811246 77.95608,8.82996 101.78526,34.88518 z"
       id="path2985"
       inkscape:connector-curvature="0"
       sodipodi:nodetypes="ccscscscc" />
    <path
       style="fill:none;stroke:#4b4b4b;stroke-width:1.5655787;stroke-linecap:butt;stroke-linejoin:miter;stroke-miterlimit:4;stroke-opacity:1;stroke-dasharray:none"
       d="m 552.84316,159.83224 c 0,0 2.72224,-7.29209 12.28744,-7.29209 9.56521,0 12.28745,7.29209 12.28745,7.29209"
       id="path2988"
       inkscape:connector-curvature="0"
       sodipodi:nodetypes="czc" />
    <path
       style="fill:none;stroke:#4b4b4b;stroke-width:1.26404107;stroke-linecap:butt;stroke-linejoin:miter;stroke-miterlimit:4;stroke-opacity:1;stroke-dasharray:none"
       d="m 582.42231,158.33452 c 0,0 -0.0938,-6.22171 7.17851,-8.6028 7.27228,-2.38108 11.50541,2.48534 11.50541,2.48534"
       id="path2988-1"
       inkscape:connector-curvature="0"
       sodipodi:nodetypes="czc" />
    <path
       style="fill:none;stroke:#4b4b4b;stroke-width:1.0910846;stroke-linecap:butt;stroke-linejoin:miter;stroke-miterlimit:4;stroke-opacity:1;stroke-dasharray:none"
       d="m 604.79966,149.84423 c 0,0 -1.5599,-5.17739 3.94661,-8.61897 5.5065,-3.44159 10.20066,-0.22313 10.20066,-0.22313"
       id="path2988-1-7"
       inkscape:connector-curvature="0"
       sodipodi:nodetypes="czc" />
    <path
       style="fill:none;stroke:#4b4b4b;stroke-width:1.5655787;stroke-linecap:butt;stroke-linejoin:miter;stroke-miterlimit:4;stroke-opacity:1;stroke-dasharray:none"
       d="m 552.70215,109.51793 c 0,0 2.72224,7.29209 12.28745,7.29209 9.5652,0 12.28745,-7.29209 12.28745,-7.29209"
       id="path2988-4"
       inkscape:connector-curvature="0"
       sodipodi:nodetypes="czc" />
    <path
       style="fill:none;stroke:#4b4b4b;stroke-width:1.26404107;stroke-linecap:butt;stroke-linejoin:miter;stroke-miterlimit:4;stroke-opacity:1;stroke-dasharray:none"
       d="m 582.2813,111.01565 c 0,0 -0.0938,6.22171 7.17852,8.6028 7.27228,2.38108 11.50541,-2.48534 11.50541,-2.48534"
       id="path2988-1-0"
       inkscape:connector-curvature="0"
       sodipodi:nodetypes="czc" />
    <path
       style="fill:none;stroke:#4b4b4b;stroke-width:1.0910846;stroke-linecap:butt;stroke-linejoin:miter;stroke-miterlimit:4;stroke-opacity:1;stroke-dasharray:none"
       d="m 604.65865,119.50594 c 0,0 -1.55989,5.17739 3.94662,8.61897 5.50649,3.44159 10.20065,0.22313 10.20065,0.22313"
       id="path2988-1-7-9"
       inkscape:connector-curvature="0"
       sodipodi:nodetypes="czc" />
    <path
       style="fill:#e9c6af;fill-opacity:1;stroke:#000000;stroke-width:1;stroke-linecap:butt;stroke-linejoin:miter;stroke-miterlimit:4;stroke-opacity:1;stroke-dasharray:none;stroke-dashoffset:0"
       d="m 507.77001,121.20652 c 0.18736,-5.96318 7.37552,-4.69329 9.32049,-1.01884 l 23.6643,35.56742 c -1.21052,4.10158 -3.16399,5.79373 -7.49621,5.12347 z"
       id="rect3884-5"
       inkscape:connector-curvature="0"
       sodipodi:nodetypes="ccccc" />
    <path
       style="fill:#e9c6af;fill-opacity:1;stroke:#000000;stroke-width:1;stroke-linecap:butt;stroke-linejoin:miter;stroke-miterlimit:4;stroke-opacity:1;stroke-dasharray:none;stroke-dashoffset:0"
       d="m 507.07568,150.08666 c 0.18736,5.96318 7.37552,4.69329 9.32049,1.01884 l 23.6643,-35.56742 c -1.21052,-4.10158 -3.16399,-5.79373 -7.49621,-5.12347 z"
       id="rect3884-5-5"
       inkscape:connector-curvature="0"
       sodipodi:nodetypes="ccccc" />
    <path
       style="fill:#e9c6af;fill-opacity:1;stroke:#000000;stroke-width:1;stroke-linecap:butt;stroke-linejoin:miter;stroke-miterlimit:4;stroke-opacity:1;stroke-dashoffset:0;stroke-dasharray:none"
       d="m 534.14979,110.86653 c 3.42135,-4.88764 6.67977,-4.23596 9.77528,0 l 0,48.22465 c -3.25843,2.76965 -6.51685,2.93258 -9.77528,0 z"
       id="rect3884"
       inkscape:connector-curvature="0"
       sodipodi:nodetypes="ccccc" />
    <path
       style="fill:#e9c6af;fill-opacity:1;stroke:#000000;stroke-width:1;stroke-linecap:butt;stroke-linejoin:miter;stroke-miterlimit:4;stroke-opacity:1;stroke-dasharray:none;stroke-dashoffset:0"
       d="m 497.571,121.75577 c 3.03363,-3.01485 5.9228,-2.95492 8.66752,-0.34205 l 0,27.69411 c -2.88918,1.7084 -5.77834,1.69488 -8.66752,-0.11402 z"
       id="rect3884-1"
       inkscape:connector-curvature="0"
       sodipodi:nodetypes="ccccc" />
    <path
       style="fill:#e9c6af;fill-opacity:1;stroke:#000000;stroke-width:1;stroke-linecap:butt;stroke-linejoin:miter;stroke-miterlimit:4;stroke-opacity:1;stroke-dasharray:none;stroke-dashoffset:0"
       d="m 488.22157,121.58398 c 3.03363,-3.01485 5.9228,-2.95492 8.66752,-0.34205 l 0,27.69411 c -2.88918,1.7084 -5.77834,1.69488 -8.66752,-0.11402 z"
       id="rect3884-1-7"
       inkscape:connector-curvature="0"
       sodipodi:nodetypes="ccccc" />
  </g>
</svg>
