<?xml version="1.0" encoding="UTF-8" standalone="no"?>
<!-- Created with Inkscape (http://www.inkscape.org/) -->

<svg
   xmlns:dc="http://purl.org/dc/elements/1.1/"
   xmlns:cc="http://creativecommons.org/ns#"
   xmlns:rdf="http://www.w3.org/1999/02/22-rdf-syntax-ns#"
   xmlns:svg="http://www.w3.org/2000/svg"
   xmlns="http://www.w3.org/2000/svg"
   xmlns:sodipodi="http://sodipodi.sourceforge.net/DTD/sodipodi-0.dtd"
   xmlns:inkscape="http://www.inkscape.org/namespaces/inkscape"
   width="210mm"
   height="297mm"
   viewBox="0 0 210 297"
   version="1.1"
   id="svg4631"
   inkscape:version="0.92.4 (5da689c313, 2019-01-14)"
   sodipodi:docname="car2.svg">
  <defs
     id="defs4625" />
  <sodipodi:namedview
     id="base"
     pagecolor="#ffffff"
     bordercolor="#666666"
     borderopacity="1.0"
     inkscape:pageopacity="0.0"
     inkscape:pageshadow="2"
     inkscape:zoom="1.4"
     inkscape:cx="196.7695"
     inkscape:cy="339.69144"
     inkscape:document-units="mm"
     inkscape:current-layer="layer1"
     showgrid="false"
     inkscape:window-width="1920"
     inkscape:window-height="1001"
     inkscape:window-x="-9"
     inkscape:window-y="-9"
     inkscape:window-maximized="1" />
  <metadata
     id="metadata4628">
    <rdf:RDF>
      <cc:Work
         rdf:about="">
        <dc:format>image/svg+xml</dc:format>
        <dc:type
           rdf:resource="http://purl.org/dc/dcmitype/StillImage" />
        <dc:title />
      </cc:Work>
    </rdf:RDF>
  </metadata>
  <g
     inkscape:label="Layer 1"
     inkscape:groupmode="layer"
     id="layer1">
    <path
       style="fill:#1a1a1a;fill-opacity:1;stroke:#000000;stroke-width:1.33278179;stroke-miterlimit:4;stroke-dasharray:none;stroke-opacity:1"
       d="m 29.406988,72.669511 15.295976,-0.235476 c -8.359275,10.164682 -6.687578,22.252414 0,31.789155 L 29.171515,102.96732 C 22.859684,94.607954 23.897597,80.911146 29.406988,72.669511 Z"
       id="rect5285-9"
       inkscape:connector-curvature="0"
       sodipodi:nodetypes="ccccc" />
    <ellipse
       style="fill:#1a1a1a;fill-opacity:1;stroke:#000000;stroke-width:1.40379095;stroke-miterlimit:4;stroke-dasharray:none;stroke-opacity:1"
       id="path5297-71"
       cx="45.284485"
       cy="88.351608"
       rx="7.2636757"
       ry="15.937138" />
    <ellipse
       style="fill:#808080;fill-opacity:1;stroke:#505050;stroke-width:0.94714528;stroke-miterlimit:4;stroke-dasharray:none;stroke-opacity:1"
       id="path5297-7-9"
       cx="45.783993"
       cy="88.462616"
       rx="4.9016542"
       ry="10.754659" />
    <path
       style="fill:#666666;stroke:#505050;stroke-width:0.17980272;stroke-miterlimit:4;stroke-dasharray:none;stroke-opacity:1"
       d="m 46.932331,96.466625 c -0.01805,1.10055 -1.440871,1.47301 -1.440871,1.47301 -0.373785,-1.0662 -0.433254,-2.25984 0,-3.14765 0,0 1.458915,0.57408 1.440871,1.67464 z"
       id="path27-7-53"
       inkscape:connector-curvature="0"
       sodipodi:nodetypes="zccz" />
    <path
       style="fill:#666666;stroke:#505050;stroke-width:0.17980272;stroke-miterlimit:4;stroke-dasharray:none;stroke-opacity:1"
       d="m 47.206915,81.090409 c -0.01805,1.100551 -1.440872,1.473006 -1.440872,1.473006 -0.373783,-1.066198 -0.433252,-2.25984 0,-3.147647 0,0 1.458919,0.574084 1.440872,1.674641 z"
       id="path27-7-5-3"
       inkscape:connector-curvature="0"
       sodipodi:nodetypes="zccz" />
    <path
       style="fill:#666666;stroke:#505050;stroke-width:0.17980272;stroke-miterlimit:4;stroke-dasharray:none;stroke-opacity:1"
       d="m 44.098801,88.916197 c -0.01805,1.100551 -1.440872,1.473008 -1.440872,1.473008 -0.373784,-1.066199 -0.433253,-2.259841 0,-3.147647 0,0 1.458917,0.574083 1.440872,1.674639 z"
       id="path27-7-6-9"
       inkscape:connector-curvature="0"
       sodipodi:nodetypes="zccz" />
    <path
       style="fill:#666666;stroke:#505050;stroke-width:0.17980272;stroke-miterlimit:4;stroke-dasharray:none;stroke-opacity:1"
       d="m 49.705886,88.882195 c -0.01805,1.100551 -1.440872,1.473008 -1.440872,1.473008 -0.373784,-1.066199 -0.433253,-2.259841 0,-3.147647 0,0 1.458917,0.574083 1.440872,1.674639 z"
       id="path27-7-6-9-5"
       inkscape:connector-curvature="0"
       sodipodi:nodetypes="zccz" />
    <path
       style="fill:#2f1616;fill-opacity:1;stroke:#505050;stroke-width:1.17472041;stroke-miterlimit:4;stroke-dasharray:none;stroke-opacity:1"
       d="M 37.004663,90.599305 C 30.027729,90.91596 25.757963,90.383894 19.982693,89.9024 21.623346,74.082143 29.655125,66.44098 37.447605,66.349109 48.877171,66.214359 55.891656,77.393088 55.933527,88.391055 L 52.91312,88.548108 C 55.425537,75.981032 36.38817,60.642973 37.004663,90.599305 Z"
       id="path5282-9"
       inkscape:connector-curvature="0"
       sodipodi:nodetypes="ccsccc" />
    <path
       style="fill:#2f1616;fill-opacity:1;stroke:#505050;stroke-width:1;stroke-miterlimit:4;stroke-dasharray:none;stroke-opacity:1"
       d="m 159.42626,58.395124 c -0.29071,10.882272 -88.415391,23.4529 -99.891981,23.4529 -11.47659,0 -20.780205,-8.824972 -20.780205,-19.711126 0,-10.886154 11.308136,-17.03843 22.784727,-17.03843 1.729252,-32.94097 24.287205,-32.410404 44.160289,-32.730262 51.33445,-0.826231 54.26171,26.017652 53.72717,46.026918 z"
       id="path5202"
       inkscape:connector-curvature="0"
       sodipodi:nodetypes="ssscss" />
    <path
       style="fill:#241616;fill-opacity:1;stroke:#505050;stroke-width:1.17472041;stroke-miterlimit:4;stroke-dasharray:none;stroke-opacity:1"
       d="m 84.535492,73.367188 8.163141,1.923046 c 2.263178,4.604849 4.644096,9.405927 4.827242,14.677955 l -17.071954,0.156984 z"
       id="rect30"
       inkscape:connector-curvature="0"
       sodipodi:nodetypes="ccccc" />
    <path
       style="fill:#1a1a1a;stroke:#505050;stroke-width:1;stroke-miterlimit:4;stroke-dasharray:none;stroke-opacity:1"
       d="M 58.906458,81.741254 C 41.309653,83.205183 23.753543,80.22949 13.203372,73.723168 12.535198,52.993223 22.99235,51.051664 36.45582,51.539799 c 8.799839,0.31905 34.740588,-6.023088 41.344918,-4.343913 7.95628,2.022914 -19.42882,24.247213 -18.89428,34.545368 z"
       id="path5182"
       inkscape:connector-curvature="0"
       sodipodi:nodetypes="ccssc" />
    <path
       style="fill:#2f8ea4;fill-opacity:1;stroke:#505050;stroke-width:1;stroke-miterlimit:4;stroke-dasharray:none;stroke-opacity:1"
       d="m 103.48725,42.962498 c -12.027707,1.714263 -26.622772,0.592829 -37.266169,-5.124582 3.343503,-17.295585 8.763093,-18.17511 20.681445,-17.477412 11.918352,0.697697 19.752124,7.130355 16.584724,22.601994 z"
       id="path5205"
       inkscape:connector-curvature="0"
       sodipodi:nodetypes="cczc" />
    <ellipse
       style="fill:#f9f9f9;fill-opacity:1;stroke:#505050;stroke-width:1.32088673;stroke-miterlimit:4;stroke-dasharray:none;stroke-opacity:1"
       id="path5241-8"
       cx="67.269318"
       cy="44.332047"
       rx="8.5020456"
       ry="10.371066"
       transform="matrix(0.98283641,-0.18447924,0.05718632,0.99836352,0,0)" />
    <circle
       style="fill:#000000;fill-opacity:1;stroke:#505050;stroke-width:0;stroke-miterlimit:4;stroke-dasharray:none;stroke-opacity:1"
       id="path5243-2"
       cx="64.728416"
       cy="34.401039"
       r="2.7875743" />
    <path
       style="fill:#1a1a1a;stroke:#000000;stroke-width:0.26458332px;stroke-linecap:butt;stroke-linejoin:miter;stroke-opacity:1"
       d="m 76.36296,41.529237 4.553361,-10.739425 c -5.309757,-3.754604 -10.993205,-7.021755 -17.360692,-9.737126 -1.092325,-0.0236 -2.090736,0.185084 -3.079242,0.551937 7.196334,2.723395 14.377772,5.687241 18.879856,10.091181 l -4.120671,9.703755 z"
       id="path5263-2"
       inkscape:connector-curvature="0"
       sodipodi:nodetypes="ccccccc" />
    <path
       style="fill:#d4aa00;stroke:#b09876;stroke-width:1;stroke-miterlimit:4;stroke-dasharray:none;stroke-opacity:1"
       d="M 20.419649,38.309962 80.020753,35.904536 78.149868,47.397126 34.451299,53.41069 29.439993,66.105993 Z"
       id="rect4636"
       inkscape:connector-curvature="0"
       sodipodi:nodetypes="cccccc" />
    <ellipse
       style="fill:#ffeeaa;stroke:#505050;stroke-width:1;stroke-miterlimit:4;stroke-dasharray:none;stroke-opacity:1"
       id="path5185"
       cx="43.738914"
       cy="68.511414"
       rx="5.8131123"
       ry="7.2162771" />
    <ellipse
       style="fill:#ffeeaa;stroke:#505050;stroke-width:0.72411007;stroke-miterlimit:4;stroke-dasharray:none;stroke-opacity:1"
       id="path5185-8"
       cx="26.703348"
       cy="62.216259"
       rx="3.6550047"
       ry="6.0178742"
       transform="rotate(5.9125399)" />
    <path
       style="fill:#2f8ea4;fill-opacity:1;stroke:#505050;stroke-width:1;stroke-miterlimit:4;stroke-dasharray:none;stroke-opacity:1"
       d="m 131.32651,39.083283 c -8.43694,1.714263 -10.08632,2.482709 -21.76915,3.56887 -0.24726,-17.579067 5.36131,-17.986121 12.83844,-18.233364 7.47713,-0.247244 7.75138,2.405652 8.93071,14.664494 z"
       id="path5205-1"
       inkscape:connector-curvature="0"
       sodipodi:nodetypes="cczc" />
    <path
       style="fill:#2f8ea4;fill-opacity:1;stroke:#505050;stroke-width:1;stroke-miterlimit:4;stroke-dasharray:none;stroke-opacity:1"
       d="m 135.37043,38.273337 c 4.04688,-0.678094 9.81294,-1.717051 15.29486,-2.759818 -2.05725,-7.989083 -7.93867,-13.070778 -12.73737,-12.097563 -4.79869,0.973214 -3.4805,6.622722 -2.55749,14.857381 z"
       id="path5205-1-1"
       inkscape:connector-curvature="0"
       sodipodi:nodetypes="cczc" />
    <path
       style="fill:#666666;fill-opacity:1;stroke:#505050;stroke-width:1;stroke-miterlimit:4;stroke-dasharray:none;stroke-opacity:1"
       d="m 13.203372,73.723167 c 8.753076,7.283095 31.83848,10.623964 51.516198,8.084904 -0.503336,1.626868 -1.596517,5.649903 -1.91705,8.298601 -14.875661,1.039435 -36.849602,-0.521107 -49.788136,-7.135691 -0.551215,-1.854182 -0.535466,-7.677114 0.188988,-9.247814 z"
       id="rect5238"
       inkscape:connector-curvature="0"
       sodipodi:nodetypes="ccccc" />
    <ellipse
       style="fill:#f9f9f9;fill-opacity:1;stroke:#505050;stroke-width:1.32088673;stroke-miterlimit:4;stroke-dasharray:none;stroke-opacity:1"
       id="path5241"
       cx="102.50094"
       cy="-1.0176193"
       rx="8.5020456"
       ry="10.371066"
       transform="matrix(0.93187902,0.36276921,-0.47904134,0.87779234,0,0)" />
    <circle
       style="fill:#000000;fill-opacity:1;stroke:#505050;stroke-width:0;stroke-miterlimit:4;stroke-dasharray:none;stroke-opacity:1"
       id="path5243"
       cx="91.753716"
       cy="40.448662"
       r="2.7875743" />
    <path
       style="fill:none;stroke:#505050;stroke-width:1;stroke-linecap:butt;stroke-linejoin:miter;stroke-miterlimit:4;stroke-dasharray:none;stroke-opacity:1"
       d="M 81.249934,42.759862 C 81.383569,35.042454 82.38583,27.124594 85.659882,20.309221"
       id="path5280"
       inkscape:connector-curvature="0"
       sodipodi:nodetypes="cc" />
    <path
       style="fill:#1a1a1a;stroke:#000000;stroke-width:0.26458332px;stroke-linecap:butt;stroke-linejoin:miter;stroke-opacity:1"
       d="M 83.904982,42.5471 82.257068,30.999255 c 6.094865,-2.267857 12.425965,-3.96875 19.276782,-4.960937 1.06187,0.257224 1.97341,0.714901 2.83483,1.322916 -7.65402,0.787451 -15.355287,1.811136 -20.835944,4.913691 l 1.495201,10.43586 z"
       id="path5263"
       inkscape:connector-curvature="0"
       sodipodi:nodetypes="ccccccc" />
    <path
       style="fill:#1a1a1a;fill-opacity:1;stroke:#000000;stroke-width:1.33278167;stroke-miterlimit:4;stroke-dasharray:none;stroke-opacity:1"
       d="M 71.534151,77.538236 86.830127,77.30276 c -8.359275,10.164682 -6.687578,22.252414 0,31.78916 L 71.298678,107.83604 C 64.986847,99.476679 66.02476,85.779871 71.534151,77.538236 Z"
       id="rect5285"
       inkscape:connector-curvature="0"
       sodipodi:nodetypes="ccccc" />
    <ellipse
       style="fill:#1a1a1a;fill-opacity:1;stroke:#000000;stroke-width:1.40379095;stroke-miterlimit:4;stroke-dasharray:none;stroke-opacity:1"
       id="path5297"
       cx="87.411644"
       cy="93.220329"
       rx="7.2636757"
       ry="15.937138" />
    <ellipse
       style="fill:#808080;fill-opacity:1;stroke:#505050;stroke-width:0.94714528;stroke-miterlimit:4;stroke-dasharray:none;stroke-opacity:1"
       id="path5297-7"
       cx="87.911156"
       cy="93.331337"
       rx="4.9016542"
       ry="10.754659" />
    <path
       style="fill:none;stroke:#505050;stroke-width:0.75;stroke-linecap:butt;stroke-linejoin:miter;stroke-miterlimit:4;stroke-dasharray:none;stroke-opacity:1"
       d="m 129.92931,70.497768 c 2.69841,-10.303673 3.52592,-20.206441 3.418,-30.777383 -0.28441,-6.082938 -1.10336,-12.099058 -2.45685,-18.048361 -7.58068,-0.607688 -14.64163,-0.412177 -21.74984,1.862204 -1.32292,6.425595 -1.98438,12.709448 -2.55134,19.276784 0.53547,10.709326 1.82689,21.229664 3.59078,31.844496 z"
       id="path994"
       inkscape:connector-curvature="0"
       sodipodi:nodetypes="ccccccc" />
    <path
       style="fill:#666666;fill-opacity:1;stroke:#505050;stroke-width:1;stroke-miterlimit:4;stroke-dasharray:none;stroke-opacity:1"
       d="m 96.41435,77.498211 c 12.81038,-2.562118 26.67451,-3.845174 41.86588,-8.999934 0.69376,1.693342 1.26516,3.405651 0.91725,5.411881 -13.70548,5.875841 -27.41437,7.757989 -41.052883,9.453866 -1.130575,-1.569596 -1.897589,-4.144207 -1.730247,-5.865813 z"
       id="rect5238-3"
       inkscape:connector-curvature="0"
       sodipodi:nodetypes="ccccc" />
    <path
       style="fill:#2f1616;fill-opacity:1;stroke:#505050;stroke-width:1.17472041;stroke-miterlimit:4;stroke-dasharray:none;stroke-opacity:1"
       d="m 80.284578,92.058704 c -6.976934,0.316655 -11.2467,-0.215412 -17.02197,-0.696906 1.640653,-15.820257 9.672432,-23.46142 17.464912,-23.553291 11.429566,-0.13475 18.444053,11.04398 18.485924,22.041946 l -3.020407,0.157053 C 98.705454,77.440431 79.668085,62.102371 80.284578,92.058704 Z"
       id="path5282"
       inkscape:connector-curvature="0"
       sodipodi:nodetypes="ccsccc" />
    <path
       style="fill:#666666;stroke:#505050;stroke-width:0.5873602;stroke-miterlimit:4;stroke-dasharray:none;stroke-opacity:1"
       d="m 97.649419,93.167613 c -2.414332,1.95138 -9.783518,5.446469 -9.783518,5.446469 -1.22104,-3.482972 -1.415303,-7.382212 0,-10.282415 0,0 6.619902,2.107539 9.783518,4.835946 z"
       id="path27"
       inkscape:connector-curvature="0"
       sodipodi:nodetypes="cccc" />
    <path
       style="fill:#666666;stroke:#505050;stroke-width:0.17980272;stroke-miterlimit:4;stroke-dasharray:none;stroke-opacity:1"
       d="m 89.059494,101.33535 c -0.01805,1.10055 -1.440871,1.47301 -1.440871,1.47301 -0.373785,-1.0662 -0.433254,-2.25984 0,-3.14765 0,0 1.458916,0.57408 1.440871,1.67464 z"
       id="path27-7"
       inkscape:connector-curvature="0"
       sodipodi:nodetypes="zccz" />
    <path
       style="fill:#666666;stroke:#505050;stroke-width:0.17980272;stroke-miterlimit:4;stroke-dasharray:none;stroke-opacity:1"
       d="m 89.334079,85.959134 c -0.01805,1.100551 -1.440872,1.473006 -1.440872,1.473006 -0.373784,-1.066198 -0.433253,-2.25984 0,-3.147647 0,0 1.458918,0.574084 1.440872,1.674641 z"
       id="path27-7-5"
       inkscape:connector-curvature="0"
       sodipodi:nodetypes="zccz" />
    <path
       style="fill:#666666;stroke:#505050;stroke-width:0.17980272;stroke-miterlimit:4;stroke-dasharray:none;stroke-opacity:1"
       d="m 86.225964,93.784922 c -0.01805,1.100551 -1.440872,1.473008 -1.440872,1.473008 -0.373784,-1.066199 -0.433253,-2.259841 0,-3.147647 0,0 1.458917,0.574083 1.440872,1.674639 z"
       id="path27-7-6"
       inkscape:connector-curvature="0"
       sodipodi:nodetypes="zccz" />
    <path
       style="fill:#241616;fill-opacity:1;stroke:#505050;stroke-width:0.89024013;stroke-miterlimit:4;stroke-dasharray:none;stroke-opacity:1"
       d="m 154.4015,54.861394 6.18628,1.457345 c 1.71511,3.4897 3.51945,7.128109 3.65823,11.123418 l -12.93766,0.118967 z"
       id="rect30-8"
       inkscape:connector-curvature="0"
       sodipodi:nodetypes="ccccc" />
    <path
       style="fill:#1a1a1a;fill-opacity:1;stroke:#000000;stroke-width:1.01002395;stroke-miterlimit:4;stroke-dasharray:none;stroke-opacity:1"
       d="m 144.54867,58.022346 11.59177,-0.178452 c -6.33492,7.703117 -5.06806,16.863582 0,24.090824 l -11.77022,-0.951736 c -4.78331,-6.334992 -3.99674,-16.714865 0.17845,-22.960636 z"
       id="rect5285-5"
       inkscape:connector-curvature="0"
       sodipodi:nodetypes="ccccc" />
    <ellipse
       style="fill:#1a1a1a;fill-opacity:1;stroke:#000000;stroke-width:1.06383705;stroke-miterlimit:4;stroke-dasharray:none;stroke-opacity:1"
       id="path5297-3"
       cx="156.58113"
       cy="69.906731"
       rx="5.5046425"
       ry="12.077666" />
    <ellipse
       style="fill:#808080;fill-opacity:1;stroke:#505050;stroke-width:0.71777666;stroke-miterlimit:4;stroke-dasharray:none;stroke-opacity:1"
       id="path5297-7-2"
       cx="156.95969"
       cy="69.99086"
       rx="3.7146282"
       ry="8.150219" />
    <path
       style="fill:#2f1616;fill-opacity:1;stroke:#505050;stroke-width:0.89024013;stroke-miterlimit:4;stroke-dasharray:none;stroke-opacity:1"
       d="m 151.18001,69.026415 c -5.28733,0.23997 -8.52309,-0.163246 -12.89978,-0.528138 1.24334,-11.98909 7.33008,-17.779804 13.23547,-17.849427 8.66168,-0.102117 13.97748,8.369477 14.00921,16.704082 l -2.28896,0.11902 c 1.90399,-9.523726 -12.52313,-21.147392 -12.05594,1.554463 z"
       id="path5282-6"
       inkscape:connector-curvature="0"
       sodipodi:nodetypes="ccsccc" />
    <path
       style="fill:#666666;stroke:#505050;stroke-width:0.44512007;stroke-miterlimit:4;stroke-dasharray:none;stroke-opacity:1"
       d="m 164.33964,69.866781 c -1.82966,1.478817 -7.41426,4.127507 -7.41426,4.127507 -0.92534,-2.639507 -1.07256,-5.594474 0,-7.79234 0,0 5.01677,1.59716 7.41426,3.664833 z"
       id="path27-5"
       inkscape:connector-curvature="0"
       sodipodi:nodetypes="cccc" />
    <path
       style="fill:#666666;stroke:#505050;stroke-width:0.13626018;stroke-miterlimit:4;stroke-dasharray:none;stroke-opacity:1"
       d="m 157.82993,76.056549 c -0.0137,0.834033 -1.09194,1.116291 -1.09194,1.116291 -0.28327,-0.807999 -0.32833,-1.712577 0,-2.385386 0,0 1.10561,0.43506 1.09194,1.269095 z"
       id="path27-7-7"
       inkscape:connector-curvature="0"
       sodipodi:nodetypes="zccz" />
    <path
       style="fill:#666666;stroke:#505050;stroke-width:0.13626018;stroke-miterlimit:4;stroke-dasharray:none;stroke-opacity:1"
       d="m 158.03801,64.403968 c -0.0137,0.834032 -1.09193,1.11629 -1.09193,1.11629 -0.28326,-0.807998 -0.32834,-1.712577 0,-2.385385 0,0 1.10561,0.435058 1.09193,1.269095 z"
       id="path27-7-5-9"
       inkscape:connector-curvature="0"
       sodipodi:nodetypes="zccz" />
    <path
       style="fill:#666666;stroke:#505050;stroke-width:0.13626018;stroke-miterlimit:4;stroke-dasharray:none;stroke-opacity:1"
       d="m 155.68259,70.334598 c -0.0137,0.834032 -1.09194,1.116291 -1.09194,1.116291 -0.28327,-0.808 -0.32833,-1.712579 0,-2.385387 0,0 1.10561,0.435059 1.09194,1.269096 z"
       id="path27-7-6-2"
       inkscape:connector-curvature="0"
       sodipodi:nodetypes="zccz" />
    <path
       style="fill:none;stroke:#505050;stroke-width:0.75;stroke-linecap:butt;stroke-linejoin:miter;stroke-miterlimit:4;stroke-dasharray:none;stroke-opacity:1"
       d="m 130.89046,21.672024 c 17.39487,-3.590582 23.24939,9.465181 22.38861,26.099143 -3.94222,1.403165 -8.01808,2.939965 -12.42803,3.608138 -2.8286,5.634933 -4.05359,11.737587 -4.87767,17.706607 l -6.04406,1.411856"
       id="path996"
       inkscape:connector-curvature="0"
       sodipodi:nodetypes="ccccc" />
    <path
       style="fill:#1a1a1a;fill-opacity:1;stroke:#000000;stroke-width:1.33278191;stroke-miterlimit:4;stroke-dasharray:none;stroke-opacity:1"
       d="m 24.297027,225.90763 15.297744,0.0367 c -8.53879,10.01436 -7.082408,22.12992 -0.565554,31.78412 L 23.52257,256.19647 c -6.162114,-8.47034 -4.880687,-22.14651 0.774457,-30.28882 z"
       id="rect5285-9-6"
       inkscape:connector-curvature="0"
       sodipodi:nodetypes="ccccc" />
    <ellipse
       style="fill:#1a1a1a;fill-opacity:1;stroke:#000000;stroke-width:1.40379095;stroke-miterlimit:4;stroke-dasharray:none;stroke-opacity:1"
       id="path5297-71-5"
       cx="44.189747"
       cy="241.1217"
       rx="7.2636757"
       ry="15.937138"
       transform="rotate(1.0193892)" />
    <ellipse
       style="fill:#808080;fill-opacity:1;stroke:#505050;stroke-width:0.94714528;stroke-miterlimit:4;stroke-dasharray:none;stroke-opacity:1"
       id="path5297-7-9-3"
       cx="44.689251"
       cy="241.23271"
       rx="4.9016542"
       ry="10.754659"
       transform="rotate(1.0193892)" />
    <path
       style="fill:#666666;stroke:#505050;stroke-width:0.17980272;stroke-miterlimit:4;stroke-dasharray:none;stroke-opacity:1"
       d="m 41.396226,250.01276 c -0.03762,1.10005 -1.466849,1.44714 -1.466849,1.44714 -0.354758,-1.07268 -0.39298,-2.26719 0.056,-3.14715 0,0 1.448471,0.59994 1.410849,1.70001 z"
       id="path27-7-53-7"
       inkscape:connector-curvature="0"
       sodipodi:nodetypes="zccz" />
    <path
       style="fill:#666666;stroke:#505050;stroke-width:0.17980272;stroke-miterlimit:4;stroke-dasharray:none;stroke-opacity:1"
       d="m 41.944321,234.64386 c -0.03762,1.10006 -1.466848,1.44714 -1.466848,1.44714 -0.354757,-1.07268 -0.392979,-2.26719 0.056,-3.14715 0,0 1.448474,0.59995 1.41085,1.70001 z"
       id="path27-7-5-3-5"
       inkscape:connector-curvature="0"
       sodipodi:nodetypes="zccz" />
    <path
       style="fill:#666666;stroke:#505050;stroke-width:0.17980272;stroke-miterlimit:4;stroke-dasharray:none;stroke-opacity:1"
       d="m 38.697474,242.41312 c -0.03763,1.10006 -1.466852,1.44714 -1.466852,1.44714 -0.354754,-1.07269 -0.39298,-2.26719 0.056,-3.14714 0,0 1.448473,0.59994 1.410852,1.7 z"
       id="path27-7-6-9-0"
       inkscape:connector-curvature="0"
       sodipodi:nodetypes="zccz" />
    <path
       style="fill:#666666;stroke:#505050;stroke-width:0.17980272;stroke-miterlimit:4;stroke-dasharray:none;stroke-opacity:1"
       d="m 44.304274,242.47887 c -0.03762,1.10006 -1.466847,1.44715 -1.466847,1.44715 -0.354758,-1.07268 -0.39298,-2.26719 0.056,-3.14715 0,0 1.448471,0.59995 1.410849,1.7 z"
       id="path27-7-6-9-5-9"
       inkscape:connector-curvature="0"
       sodipodi:nodetypes="zccz" />
    <path
       style="fill:#2f1616;fill-opacity:1;stroke:#505050;stroke-width:1.17472041;stroke-miterlimit:4;stroke-dasharray:none;stroke-opacity:1"
       d="m 31.574515,243.96975 c -6.981464,0.19248 -11.241088,-0.41546 -17.006878,-0.99963 1.921847,-15.78857 10.088297,-23.28563 17.881178,-23.23885 11.430154,0.0686 18.24465,11.37037 18.090853,22.36734 l -3.022723,0.10329 c 2.735597,-12.52039 -16.02588,-28.19471 -15.94243,1.76785 z"
       id="path5282-9-1"
       inkscape:connector-curvature="0"
       sodipodi:nodetypes="ccsccc" />
    <path
       style="fill:#2f1616;fill-opacity:1;stroke:#505050;stroke-width:1;stroke-miterlimit:4;stroke-dasharray:none;stroke-opacity:1"
       d="m 151.27096,225.98142 c -1.76326,10.7424 -91.615006,10.86382 -102.985651,9.30802 -11.370646,-1.55581 -19.25618,-13.37683 -17.78042,-24.16248 1.475762,-10.78567 8.168138,-15.21455 19.538785,-13.65875 0.165306,-33.7388 33.80205,-28.9524 53.535036,-26.57525 50.97258,6.14045 50.93438,35.33638 47.69225,55.08846 z"
       id="path5202-2"
       inkscape:connector-curvature="0"
       sodipodi:nodetypes="ssscss" />
    <path
       style="fill:#241616;fill-opacity:1;stroke:#505050;stroke-width:1.17472041;stroke-miterlimit:4;stroke-dasharray:none;stroke-opacity:1"
       d="m 72.350279,227.30157 8.168392,1.9006 c 2.275817,4.59862 4.669914,9.39314 4.867538,14.66465 l -17.071457,0.20387 z"
       id="rect30-5"
       inkscape:connector-curvature="0"
       sodipodi:nodetypes="ccccc" />
    <path
       style="fill:#1a1a1a;stroke:#505050;stroke-width:1;stroke-miterlimit:4;stroke-dasharray:none;stroke-opacity:1"
       d="m 48.615424,233.28225 c -17.63282,-0.93506 -32.218046,0.0176 -43.9269641,-3.31529 -1.9944675,-22.76733 11.7029551,-31.95962 24.9759661,-29.65084 8.675355,1.50904 34.300952,-2.19339 40.616682,0.3656 7.608601,3.08281 -21.467416,10.96603 -21.665684,32.60053 z"
       id="path5182-5"
       inkscape:connector-curvature="0"
       sodipodi:nodetypes="ccssc" />
    <path
       style="fill:#2f8ea4;fill-opacity:1;stroke:#505050;stroke-width:1;stroke-miterlimit:4;stroke-dasharray:none;stroke-opacity:1"
       d="m 95.661232,194.89632 c -11.863822,2.61804 -26.501895,2.6025 -37.546827,-2.29445 2.027248,-17.49876 7.364901,-18.78522 19.301902,-18.98996 11.937002,-0.20473 20.234371,5.61769 18.244925,21.28441 z"
       id="path5205-7"
       inkscape:connector-curvature="0"
       sodipodi:nodetypes="cczc" />
    <ellipse
       style="fill:#f9f9f9;fill-opacity:1;stroke:#505050;stroke-width:1.32088673;stroke-miterlimit:4;stroke-dasharray:none;stroke-opacity:1"
       id="path5241-8-2"
       cx="35.148571"
       cy="197.26077"
       rx="8.5020456"
       ry="10.371066"
       transform="matrix(0.96608984,-0.25820615,0.13245013,0.99118967,0,0)" />
    <circle
       style="fill:#000000;fill-opacity:1;stroke:#505050;stroke-width:0;stroke-miterlimit:4;stroke-dasharray:none;stroke-opacity:1"
       id="path5243-2-6"
       cx="40.527489"
       cy="189.95239"
       r="2.7875743"
       transform="rotate(-4.3328755)" />
    <path
       style="fill:#1a1a1a;stroke:#000000;stroke-width:0.26458332px;stroke-linecap:butt;stroke-linejoin:miter;stroke-opacity:1"
       d="m 68.506182,195.51642 3.728971,-11.05275 c -5.578243,-3.3427 -11.492285,-6.17114 -18.046721,-8.39768 -1.090986,0.059 -2.070778,0.34252 -3.028742,0.783 7.381521,2.17193 14.766354,4.58473 19.588295,8.63595 l -3.375767,9.98734 z"
       id="path5263-2-8"
       inkscape:connector-curvature="0"
       sodipodi:nodetypes="ccccccc" />
    <path
       style="fill:none;stroke:#505050;stroke-width:1;stroke-linecap:butt;stroke-linejoin:miter;stroke-miterlimit:4;stroke-dasharray:none;stroke-opacity:1"
       d="m 73.472161,196.37431 c -0.449803,-7.70545 -0.04861,-15.6764 2.701178,-22.71966"
       id="path5280-6"
       inkscape:connector-curvature="0"
       sodipodi:nodetypes="cc" />
    <path
       style="fill:#d4aa00;stroke:#b09876;stroke-width:1;stroke-miterlimit:4;stroke-dasharray:none;stroke-opacity:1"
       d="m 15.569767,185.0345 59.376998,5.69648 -3.411585,11.13288 -44.110394,0.0341 -6.68606,11.89876 z"
       id="rect4636-9"
       inkscape:connector-curvature="0"
       sodipodi:nodetypes="cccccc" />
    <ellipse
       style="fill:#ffeeaa;stroke:#505050;stroke-width:1;stroke-miterlimit:4;stroke-dasharray:none;stroke-opacity:1"
       id="path5185-85"
       cx="63.693146"
       cy="211.81726"
       rx="5.8131123"
       ry="7.2162771"
       transform="rotate(7.7911818)" />
    <ellipse
       style="fill:#ffeeaa;stroke:#505050;stroke-width:0.72411007;stroke-miterlimit:4;stroke-dasharray:none;stroke-opacity:1"
       id="path5185-8-8"
       cx="46.338371"
       cy="211.10144"
       rx="3.6550047"
       ry="6.0178742"
       transform="rotate(9.1906588)" />
    <path
       style="fill:#2f8ea4;fill-opacity:1;stroke:#505050;stroke-width:1;stroke-miterlimit:4;stroke-dasharray:none;stroke-opacity:1"
       d="m 125.34798,200.83556 c -8.59144,0.55469 -10.32977,1.09245 -22.052,0.58483 2.1381,-17.45032 7.75007,-17.09329 15.1917,-16.32463 7.44162,0.76866 7.3537,3.43425 6.8603,15.7398 z"
       id="path5205-1-5"
       inkscape:connector-curvature="0"
       sodipodi:nodetypes="cczc" />
    <path
       style="fill:#2f8ea4;fill-opacity:1;stroke:#505050;stroke-width:1;stroke-miterlimit:4;stroke-dasharray:none;stroke-opacity:1"
       d="m 129.46437,200.58129 c 4.10146,-0.12322 9.95512,-0.37093 15.52781,-0.66092 -0.95525,-8.19422 -6.09348,-14.02631 -10.97982,-13.71261 -4.88632,0.31371 -4.34616,6.08977 -4.54799,14.37353 z"
       id="path5205-1-1-5"
       inkscape:connector-curvature="0"
       sodipodi:nodetypes="cczc" />
    <path
       style="fill:#666666;fill-opacity:1;stroke:#505050;stroke-width:1;stroke-miterlimit:4;stroke-dasharray:none;stroke-opacity:1"
       d="m 4.6884599,229.96696 c 9.6894761,3.45796 29.7034501,3.48306 49.5437201,3.63501 -0.719235,1.54362 -2.428639,9.17176 -3.10528,11.75256 -15.079701,-0.0513 -35.890127,0.18586 -47.8793451,-6.25075 -0.294768,-1.91179 0.51021,-7.67883 1.440905,-9.13682 z"
       id="rect5238-4"
       inkscape:connector-curvature="0"
       sodipodi:nodetypes="ccccc" />
    <ellipse
       style="fill:#f9f9f9;fill-opacity:1;stroke:#505050;stroke-width:1.32088673;stroke-miterlimit:4;stroke-dasharray:none;stroke-opacity:1"
       id="path5241-6"
       cx="158.90788"
       cy="156.356"
       rx="8.5020456"
       ry="10.371066"
       transform="matrix(0.95662319,0.29132811,-0.41135422,0.91147556,0,0)" />
    <circle
       style="fill:#000000;fill-opacity:1;stroke:#505050;stroke-width:0;stroke-miterlimit:4;stroke-dasharray:none;stroke-opacity:1"
       id="path5243-0"
       cx="67.009674"
       cy="196.09288"
       r="2.7875743"
       transform="rotate(-4.3328755)" />
    <path
       style="fill:#1a1a1a;stroke:#000000;stroke-width:0.26458332px;stroke-linecap:butt;stroke-linejoin:miter;stroke-opacity:1"
       d="m 76.103547,195.96156 -2.515654,-11.39033 c 5.906106,-2.72185 12.090609,-4.8962 18.846884,-6.40314 1.078271,0.17626 2.021782,0.56376 2.926672,1.10496 -7.572647,1.36347 -15.174564,2.96607 -20.405155,6.47381 l 2.279365,10.29308 z"
       id="path5263-8"
       inkscape:connector-curvature="0"
       sodipodi:nodetypes="ccccccc" />
    <path
       style="fill:#1a1a1a;fill-opacity:1;stroke:#000000;stroke-width:1.33278179;stroke-miterlimit:4;stroke-dasharray:none;stroke-opacity:1"
       d="m 59.360442,231.5083 15.295274,-0.27749 c -8.331325,10.18761 -6.626435,22.2707 0.08731,31.78905 l -15.534842,-1.21322 c -6.334766,-8.34199 -5.334478,-22.0416 0.152254,-30.29834 z"
       id="rect5285-8"
       inkscape:connector-curvature="0"
       sodipodi:nodetypes="ccccc" />
    <ellipse
       style="fill:#1a1a1a;fill-opacity:1;stroke:#000000;stroke-width:1.40379095;stroke-miterlimit:4;stroke-dasharray:none;stroke-opacity:1"
       id="path5297-74"
       cx="74.60183"
       cy="247.35257"
       rx="7.2636757"
       ry="15.937138"
       transform="rotate(-0.1573721)" />
    <ellipse
       style="fill:#808080;fill-opacity:1;stroke:#505050;stroke-width:0.94714528;stroke-miterlimit:4;stroke-dasharray:none;stroke-opacity:1"
       id="path5297-7-28"
       cx="75.101341"
       cy="247.46358"
       rx="4.9016542"
       ry="10.754659"
       transform="rotate(-0.1573721)" />
    <path
       style="fill:none;stroke:#505050;stroke-width:0.75;stroke-linecap:butt;stroke-linejoin:miter;stroke-miterlimit:4;stroke-dasharray:none;stroke-opacity:1"
       d="m 119.23731,234.24288 c 4.0703,-9.84276 6.70034,-22.01416 8.02645,-32.50216 0.54284,-6.06534 0.54701,-12.13695 0.0125,-18.21481 -7.42832,-1.62974 -14.45059,-2.39324 -21.80151,-1.10345 -2.18178,6.18693 -3.68899,12.3231 -5.141,18.75296 -0.921267,10.68306 -2.203832,23.4195 -1.895206,34.17547 z"
       id="path994-1"
       inkscape:connector-curvature="0"
       sodipodi:nodetypes="ccccccc" />
    <path
       style="fill:#666666;fill-opacity:1;stroke:#505050;stroke-width:1;stroke-miterlimit:4;stroke-dasharray:none;stroke-opacity:1"
       d="m 85.585088,235.81962 c 13.053622,-0.52274 26.947502,0.38295 42.759032,-2.32723 0.4198,1.78115 0.71577,3.56186 0.0577,5.48876 -14.457,3.65522 -28.29146,3.36557 -42.027223,2.90296 -0.870608,-1.72738 -1.224634,-4.39038 -0.789539,-6.06449 z"
       id="rect5238-3-5"
       inkscape:connector-curvature="0"
       sodipodi:nodetypes="ccccc" />
    <path
       style="fill:#2f1616;fill-opacity:1;stroke:#505050;stroke-width:1.17472041;stroke-miterlimit:4;stroke-dasharray:none;stroke-opacity:1"
       d="m 68.150719,246.00468 c -6.976037,0.33582 -11.24725,-0.18452 -17.023819,-0.65015 1.597194,-15.8247 9.607954,-23.48789 17.400152,-23.60117 11.429153,-0.16615 18.474318,10.99327 18.546395,21.99108 l -3.019962,0.16535 c 2.477889,-12.57392 -16.601536,-27.85964 -15.902766,2.09489 z"
       id="path5282-3"
       inkscape:connector-curvature="0"
       sodipodi:nodetypes="ccsccc" />
    <path
       style="fill:#666666;stroke:#505050;stroke-width:0.5873602;stroke-miterlimit:4;stroke-dasharray:none;stroke-opacity:1"
       d="m 85.518542,247.06589 c -2.408966,1.958 -9.768522,5.47333 -9.768522,5.47333 -1.230602,-3.47961 -1.435573,-7.3783 -0.02824,-10.28238 0,0 6.625664,2.08934 9.796765,4.80905 z"
       id="path27-2"
       inkscape:connector-curvature="0"
       sodipodi:nodetypes="cccc" />
    <path
       style="fill:#666666;stroke:#505050;stroke-width:0.17980272;stroke-miterlimit:4;stroke-dasharray:none;stroke-opacity:1"
       d="m 76.951082,255.25719 c -0.01502,1.1006 -1.436818,1.47697 -1.436818,1.47697 -0.376712,-1.06517 -0.439461,-2.25865 -0.0086,-3.14765 0,0 1.460488,0.57008 1.445465,1.67068 z"
       id="path27-7-4"
       inkscape:connector-curvature="0"
       sodipodi:nodetypes="zccz" />
    <path
       style="fill:#666666;stroke:#505050;stroke-width:0.17980272;stroke-miterlimit:4;stroke-dasharray:none;stroke-opacity:1"
       d="m 77.183433,239.88028 c -0.01503,1.10059 -1.436821,1.47696 -1.436821,1.47696 -0.376711,-1.06517 -0.439459,-2.25864 -0.0086,-3.14764 0,0 1.460489,0.57008 1.445466,1.67068 z"
       id="path27-7-5-7"
       inkscape:connector-curvature="0"
       sodipodi:nodetypes="zccz" />
    <path
       style="fill:#666666;stroke:#505050;stroke-width:0.17980272;stroke-miterlimit:4;stroke-dasharray:none;stroke-opacity:1"
       d="m 74.096826,247.71457 c -0.01503,1.1006 -1.436822,1.47696 -1.436822,1.47696 -0.376712,-1.06517 -0.439458,-2.25864 -0.0086,-3.14763 0,0 1.460488,0.57007 1.445467,1.67067 z"
       id="path27-7-6-28"
       inkscape:connector-curvature="0"
       sodipodi:nodetypes="zccz" />
    <path
       style="fill:#241616;fill-opacity:1;stroke:#505050;stroke-width:1.01718724;stroke-miterlimit:4;stroke-dasharray:none;stroke-opacity:1"
       d="m 146.21344,220.109 7.12886,1.38383 c 2.11612,3.90655 4.34081,7.97884 4.68012,12.53402 l -14.76556,0.72147 z"
       id="rect30-8-9"
       inkscape:connector-curvature="0"
       sodipodi:nodetypes="ccccc" />
    <path
       style="fill:#1a1a1a;fill-opacity:1;stroke:#000000;stroke-width:1.15405202;stroke-miterlimit:4;stroke-dasharray:none;stroke-opacity:1"
       d="m 135.10753,224.16386 13.22627,-0.72845 c -6.88389,9.08141 -5.02286,19.48258 1.09051,27.50454 l -13.48116,-0.55382 c -5.74789,-7.01614 -5.31972,-18.90248 -0.83562,-26.22227 z"
       id="rect5285-5-8"
       inkscape:connector-curvature="0"
       sodipodi:nodetypes="ccccc" />
    <ellipse
       style="fill:#1a1a1a;fill-opacity:1;stroke:#000000;stroke-width:1.21553886;stroke-miterlimit:4;stroke-dasharray:none;stroke-opacity:1"
       id="path5297-3-4"
       cx="139.869"
       cy="242.91951"
       rx="6.289597"
       ry="13.799926"
       transform="rotate(-2.2704855)" />
    <ellipse
       style="fill:#808080;fill-opacity:1;stroke:#505050;stroke-width:0.82013071;stroke-miterlimit:4;stroke-dasharray:none;stroke-opacity:1"
       id="path5297-7-2-0"
       cx="140.30156"
       cy="243.01566"
       rx="4.2443295"
       ry="9.3124294"
       transform="rotate(-2.2704855)" />
    <path
       style="fill:#2f1616;fill-opacity:1;stroke:#505050;stroke-width:1.01718724;stroke-miterlimit:4;stroke-dasharray:none;stroke-opacity:1"
       d="m 143.17666,236.42705 c -6.02569,0.51331 -9.73822,0.19943 -14.75161,-0.0191 0.87668,-13.74425 7.56393,-20.63104 14.30298,-20.97785 9.88442,-0.50866 16.33698,8.92274 16.75047,18.43692 l -2.60792,0.23952 c 1.74269,-10.95946 -15.25494,-23.57713 -13.69391,2.32049 z"
       id="path5282-6-8"
       inkscape:connector-curvature="0"
       sodipodi:nodetypes="ccsccc" />
    <path
       style="fill:#666666;stroke:#505050;stroke-width:0.50859362;stroke-miterlimit:4;stroke-dasharray:none;stroke-opacity:1"
       d="m 158.23906,236.79081 c -2.02198,1.77119 -8.27803,5.048 -8.27803,5.048 -1.17594,-2.97165 -1.47779,-6.33867 -0.35273,-8.89652 0,0 5.79994,1.59638 8.63076,3.84852 z"
       id="path27-5-6"
       inkscape:connector-curvature="0"
       sodipodi:nodetypes="cccc" />
    <path
       style="fill:#666666;stroke:#505050;stroke-width:0.1556907;stroke-miterlimit:4;stroke-dasharray:none;stroke-opacity:1"
       d="m 151.08711,244.15235 c 0.022,0.95283 -1.19614,1.3239 -1.19614,1.3239 -0.35998,-0.90967 -0.45233,-1.9404 -0.10798,-2.72341 0,0 1.28197,0.44666 1.30412,1.39951 z"
       id="path27-7-7-4"
       inkscape:connector-curvature="0"
       sodipodi:nodetypes="zccz" />
    <path
       style="fill:#666666;stroke:#505050;stroke-width:0.1556907;stroke-miterlimit:4;stroke-dasharray:none;stroke-opacity:1"
       d="m 150.79722,230.83916 c 0.0221,0.95282 -1.19613,1.3239 -1.19613,1.3239 -0.35999,-0.90966 -0.45234,-1.94039 -0.10798,-2.7234 0,0 1.28195,0.44665 1.30411,1.3995 z"
       id="path27-7-5-9-3"
       inkscape:connector-curvature="0"
       sodipodi:nodetypes="zccz" />
    <path
       style="fill:#666666;stroke:#505050;stroke-width:0.1556907;stroke-miterlimit:4;stroke-dasharray:none;stroke-opacity:1"
       d="m 148.37648,237.7168 c 0.0221,0.95283 -1.19615,1.3239 -1.19615,1.3239 -0.35996,-0.90968 -0.45234,-1.94041 -0.10797,-2.72341 0,0 1.28197,0.44665 1.30412,1.39951 z"
       id="path27-7-6-2-3"
       inkscape:connector-curvature="0"
       sodipodi:nodetypes="zccz" />
    <path
       style="fill:none;stroke:#505050;stroke-width:0.75;stroke-linecap:butt;stroke-linejoin:miter;stroke-miterlimit:4;stroke-dasharray:none;stroke-opacity:1"
       d="m 127.27628,183.52591 c 17.72104,-1.19933 21.75164,12.52956 18.64385,28.89329 -4.09604,0.85579 -8.3426,1.82587 -12.80243,1.89004 -3.56637,5.19947 -6.34234,13.61878 -7.96799,19.42099 l -5.9124,0.51265"
       id="path996-3"
       inkscape:connector-curvature="0"
       sodipodi:nodetypes="ccccc" />
  </g>
</svg>
