<?xml version="1.0" encoding="UTF-8" standalone="no"?>
<!-- Created with Inkscape (http://www.inkscape.org/) -->

<svg
   xmlns:dc="http://purl.org/dc/elements/1.1/"
   xmlns:cc="http://creativecommons.org/ns#"
   xmlns:rdf="http://www.w3.org/1999/02/22-rdf-syntax-ns#"
   xmlns:svg="http://www.w3.org/2000/svg"
   xmlns="http://www.w3.org/2000/svg"
   xmlns:sodipodi="http://sodipodi.sourceforge.net/DTD/sodipodi-0.dtd"
   xmlns:inkscape="http://www.inkscape.org/namespaces/inkscape"
   width="210mm"
   height="297mm"
   viewBox="0 0 210 297"
   version="1.1"
   id="svg45163"
   inkscape:version="0.92.4 (5da689c313, 2019-01-14)"
   sodipodi:docname="desertMountains.svg">
  <defs
     id="defs45157" />
  <sodipodi:namedview
     id="base"
     pagecolor="#ffffff"
     bordercolor="#666666"
     borderopacity="1.0"
     inkscape:pageopacity="0.0"
     inkscape:pageshadow="2"
     inkscape:zoom="1.6139046"
     inkscape:cx="441.69709"
     inkscape:cy="693.19349"
     inkscape:document-units="mm"
     inkscape:current-layer="layer1"
     showgrid="false"
     inkscape:window-width="1920"
     inkscape:window-height="1001"
     inkscape:window-x="-9"
     inkscape:window-y="-9"
     inkscape:window-maximized="1" />
  <metadata
     id="metadata45160">
    <rdf:RDF>
      <cc:Work
         rdf:about="">
        <dc:format>image/svg+xml</dc:format>
        <dc:type
           rdf:resource="http://purl.org/dc/dcmitype/StillImage" />
        <dc:title></dc:title>
      </cc:Work>
    </rdf:RDF>
  </metadata>
  <g
     inkscape:label="Layer 1"
     inkscape:groupmode="layer"
     id="layer1">
    <path
       style="fill:#a05a2c;stroke:#000000;stroke-width:0.26458332px;stroke-linecap:butt;stroke-linejoin:miter;stroke-opacity:1"
       d="m 15.686012,112.54762 -3.861866,13.2341 -10.548993,1.27516 -5.3324582,13.33114 38.4864362,4.75284 40.804898,2.55031 38.370511,-2.55031 29.79221,-3.94138 18.66361,-3.36177 12.98337,0.23185 19.1273,-3.36176 -0.23185,-26.1986 -1.73884,-5.10062 -5.33246,-0.81146 -4.63692,-7.882762 -10.54899,-0.347769 -4.05731,8.462381 -7.41907,1.85477 -0.34777,3.24584 -5.91449,-1.60545 -16.71138,4.64033 -34.19729,3.2342 -17.23175,3.49175 -38.665439,-5.23642 c 0,0 -17.265262,2.13303 -23.082742,1.63698 -5.81748,-0.49605 -8.368717,-1.54335 -8.368717,-1.54335"
       id="path45746"
       inkscape:connector-curvature="0"
       sodipodi:nodetypes="cccccccccccccccccccccccczc" />
    <path
       style="fill:#217821;stroke:#000000;stroke-width:0.26458332px;stroke-linecap:butt;stroke-linejoin:miter;stroke-opacity:1"
       d="m 32.127975,107.72945 39.498513,2.55031 c 0,0 2.428916,1.41095 3.779761,1.70089 3.387629,0.7271 6.953198,0.40401 10.394344,0 2.701241,-0.31714 7.9375,-1.88988 7.9375,-1.88988 l 20.221727,-0.37797 8.88244,-0.75596 2.45685,-1.5119 19.90416,-2.30581 c 0,0 9.46887,-0.64827 10.07187,2.78216 0.32925,1.87304 -2.90643,2.5478 -4.65163,3.30341 -4.9545,2.14513 -10.51368,2.57652 -15.875,3.2128 -5.13311,0.60919 -10.33678,0.26396 -15.49702,0.56696 -6.43551,0.37788 -12.93698,0.39118 -19.27679,1.55967 -3.097628,0.57092 -5.960387,2.15321 -9.071427,2.64584 -4.108458,0.65056 -8.321218,0.63013 -12.473215,0.37798 -4.579905,-0.27814 -9.108736,-1.17486 -13.607142,-2.07887 -2.864832,-0.57573 -5.621336,-1.65094 -8.504465,-2.12664 -4.552663,-0.75117 -9.182255,-1.07769 -13.796129,-1.13393 -3.280997,-0.04 -6.561241,0.25254 -9.827382,0.56697 -2.341215,0.22539 -4.649628,1.15172 -6.992559,0.94493 -3.49276,-0.30828 -9.952991,0.29298 -10.016369,-3.21279 2.810872,-3.26463 12.152644,-3.76732 16.441963,-4.81817 z"
       id="path45740"
       inkscape:connector-curvature="0"
       sodipodi:nodetypes="ccaacccccaaaaaaaaaaaacc" />
    <path
       style="fill:#d45500;stroke:#000000;stroke-width:0.26458332px;stroke-linecap:butt;stroke-linejoin:miter;stroke-opacity:1"
       d="m 32.127975,110.27976 4.430618,-8.86004 c 0,0 15.607699,-1.633081 23.443403,-1.803342 4.919767,-0.106901 14.75459,0.491822 14.75459,0.491822 0,0 1.613926,1.47748 2.631276,1.75191 4.965934,1.33955 15.40211,-0.93221 15.40211,-0.93221 0,0 17.411778,1.1093 25.738558,-0.983643 2.53617,-0.637469 7.04942,-3.442737 7.04942,-3.442737 h 12.29549 l 10.82003,10.32821 -23.39436,0.61521 -2.45685,1.5119 -8.88244,0.75596 -20.221727,0.37797 c -5.936061,1.53846 -14.57713,4.30646 -22.111605,0.18899 z"
       id="path45742"
       inkscape:connector-curvature="0"
       sodipodi:nodetypes="ccacacaccccccccc" />
    <path
       style="fill:#ff9955;stroke:#000000;stroke-width:0.26458332px;stroke-linecap:butt;stroke-linejoin:miter;stroke-opacity:1"
       d="m 43.471126,100.74235 6.143918,-14.142602 c 0,0 15.617131,0.812657 22.025372,-2.898076 3.196915,-1.851194 6.723533,-8.810149 6.723533,-8.810149 l 9.505686,-0.927383 c 0,0 0.479603,7.371131 3.129923,9.273842 3.358673,2.41125 12.403762,0 12.403762,0 0,0 -0.0562,4.908134 1.62292,6.25984 3.13271,2.521835 8.74111,2.740781 12.05599,0.463693 1.48061,-1.017075 1.73885,-5.100613 1.73885,-5.100613 l 10.78084,-0.115922 4.40507,11.5923 -8.42904,0.164238 c -4.65863,3.319784 -11.65339,5.819872 -32.787978,4.426382 -5.519309,0.87435 -14.317416,3.06021 -18.033386,-0.8197 -10.387502,-0.526346 -20.897958,-0.601858 -31.28546,0.63415 z"
       id="path45744"
       inkscape:connector-curvature="0"
       sodipodi:nodetypes="ccaccacaaccccccc" />
    <path
       style="fill:#d45500;stroke:#000000;stroke-width:0.26458332px;stroke-linecap:butt;stroke-linejoin:miter;stroke-opacity:1"
       d="m 167.62466,102.82897 c 0,0 6.51121,0.91242 9.78555,0.86772 3.1735,-0.0433 9.45767,-1.09957 9.45767,-1.09957 l -4.63692,-7.882762 -10.54899,-0.347771 -4.05731,8.462383"
       id="path45748"
       inkscape:connector-curvature="0"
       sodipodi:nodetypes="cacccc" />
    <path
       style="fill:#d35f5f;stroke:#000000;stroke-width:0.26458332px;stroke-linecap:butt;stroke-linejoin:miter;stroke-opacity:1"
       d="m 75.5353,79.656698 c 0,0 2.591481,1.778208 4.093524,1.966925 2.076134,0.260846 4.113094,-0.77638 6.154779,-1.234522 1.043203,-0.234089 3.112798,-0.773387 3.112798,-0.773387 L 88.404582,77.93533 c 0,0 -1.801093,0.383176 -2.702949,0.568464 -1.981409,0.407082 -3.953665,1.520545 -5.949851,1.193535 -1.133974,-0.185765 -2.986932,-1.721015 -2.986932,-1.721015 z"
       id="path45750"
       inkscape:connector-curvature="0"
       sodipodi:nodetypes="caaccaacc" />
    <path
       style="fill:#ffccaa;stroke:#000000;stroke-width:0.26458332px;stroke-linecap:butt;stroke-linejoin:miter;stroke-opacity:1"
       d="m 47.296657,92.239083 c 0,0 8.132824,1.014366 12.213521,0.901671 2.974473,-0.08214 5.877427,-1.188544 8.852752,-1.14758 3.663194,0.05044 7.196729,1.544078 10.8564,1.712423 4.366829,0.200875 8.749973,-0.298426 13.087063,-0.845414 2.424834,-0.305817 4.881399,-0.601407 7.205115,-1.358828 1.754632,-0.571925 5.000162,-2.377131 5.000162,-2.377131 l -0.67364,-1.684036 c 0,0 -2.7644,1.589731 -4.26017,2.115596 -2.005662,0.705126 -4.123134,1.083951 -6.230863,1.362095 -4.669304,0.61618 -9.420328,1.060307 -14.113626,0.666558 -3.073953,-0.257892 -5.958465,-1.883786 -9.041993,-1.970691 -3.676749,-0.103625 -7.222525,1.567932 -10.896761,1.738844 -3.79412,0.176489 -11.370401,-0.743253 -11.370401,-0.743253 z"
       id="path45752"
       inkscape:connector-curvature="0"
       sodipodi:nodetypes="caaaaaccaaaaacc" />
    <path
       style="fill:#ffccaa;stroke:#000000;stroke-width:0.26458332px;stroke-linecap:butt;stroke-linejoin:miter;stroke-opacity:1"
       d="m 118.03671,88.468466 0.40985,-1.188564 c 0,0 2.70953,0.711225 4.0985,0.778714 1.20576,0.05859 2.40701,-0.193431 3.60668,-0.32788 1.43816,-0.161177 4.30342,-0.573788 4.30342,-0.573788 l 0.57379,1.434473 c 0,0 -5.48049,0.99856 -8.23798,0.860684 -1.6163,-0.08082 -4.75426,-0.983639 -4.75426,-0.983639 z"
       id="path45754"
       inkscape:connector-curvature="0"
       sodipodi:nodetypes="ccaaccac" />
    <path
       style="fill:#d38d5f;stroke:#000000;stroke-width:0.26458332px;stroke-linecap:butt;stroke-linejoin:miter;stroke-opacity:1"
       d="m 34.052383,106.42258 0.86942,-1.62292 c 0,0 9.027193,-0.34448 13.534012,-0.63758 4.894555,-0.31832 9.759737,-1.27782 14.664258,-1.21719 3.419904,0.0423 7.116311,-0.3755 10.201225,1.10127 0.88722,0.42472 1.182837,1.69837 2.086615,2.08661 2.042161,0.87726 4.449643,0.34614 6.665571,0.17389 3.740378,-0.29075 7.331924,-1.71735 11.070648,-2.02865 5.102858,-0.42488 10.240518,0.11955 15.359798,0.23184 2.68602,0.0589 5.39638,0.6075 8.05665,0.23185 1.94814,-0.27509 3.79647,-1.06372 5.62226,-1.79681 1.71597,-0.68899 3.17812,-2.03995 4.98469,-2.43438 2.32242,-0.50706 4.75241,0.20983 7.12927,0.17388 2.47644,-0.0375 7.41907,-0.40573 7.41907,-0.40573 l 1.91273,1.68089 c 0,0 -11.04702,-0.79678 -16.41125,0.27987 -3.54689,0.71189 -6.53304,3.31652 -10.0823,4.01652 -7.77443,1.5333 -15.91342,-0.77717 -23.771287,0.24591 -3.634016,0.47314 -7.017408,2.26923 -10.656094,2.70501 -2.658824,0.31843 -5.56433,0.95537 -8.033054,-0.082 -1.139958,-0.47902 -1.512259,-2.07978 -2.623037,-2.62304 -2.770428,-1.35497 -6.097744,-1.06387 -9.180634,-1.14758 -4.682051,-0.12714 -9.336445,0.80621 -14.01686,0.98364 -4.93044,0.18691 -14.801701,0.0847 -14.801701,0.0847 z"
       id="path45756"
       inkscape:connector-curvature="0"
       sodipodi:nodetypes="ccaaaaaaaaaaaccaaaaaaaac" />
    <path
       style="fill:#d38d5f;stroke:#000000;stroke-width:0.26458332px;stroke-linecap:butt;stroke-linejoin:miter;stroke-opacity:1"
       d="m 168.84814,100.29118 c 0,0 3.90894,0.41351 5.87079,0.51376 1.84212,0.0941 3.69903,0.27937 5.53297,0.082 1.67377,-0.18013 4.9182,-1.147578 4.9182,-1.147578 l -1.43448,-2.418111 c 0,0 -2.2024,0.851965 -3.36077,1.024622 -1.89173,0.281966 -3.83144,0.153574 -5.73789,0 -1.53129,-0.123353 -4.54933,-0.737727 -4.54933,-0.737727 z"
       id="path45758"
       inkscape:connector-curvature="0"
       sodipodi:nodetypes="caaccaacc" />
    <path
       style="fill:none;stroke:#e9a473;stroke-width:0.26458332px;stroke-linecap:butt;stroke-linejoin:miter;stroke-opacity:1"
       d="m 13.77095,118.96128 c 0,0 10.381793,3.12257 15.73823,3.2788 4.472786,0.13046 8.806115,-2.08961 13.27913,-1.96728 7.359956,0.20129 14.3756,3.22762 21.640064,4.42638 6.901645,1.13889 13.841025,3.09058 20.820364,2.62304 4.681804,-0.31363 8.982706,-2.81078 13.60701,-3.60668 6.592312,-1.13463 13.313722,-1.46365 20.000662,-1.6394 9.34534,-0.24562 18.94126,2.99294 28.03372,0.8197 4.78051,-1.14261 8.0361,-7.04441 12.95126,-7.04941 1.49156,-0.002 2.49371,1.74555 3.93455,2.13122 3.96052,1.06013 8.20781,0.64491 12.29549,0.32788 6.03779,-0.46828 17.86945,-3.2788 17.86945,-3.2788"
       id="path45760"
       inkscape:connector-curvature="0"
       sodipodi:nodetypes="caaaaaaaaaac" />
    <path
       style="fill:none;stroke:#e9a473;stroke-width:0.26458332px;stroke-linecap:butt;stroke-linejoin:miter;stroke-opacity:1"
       d="m 13.443066,120.25231 c 0,0 10.590644,3.28457 16.066111,3.46323 4.472308,0.14593 8.806114,-2.08961 13.27913,-1.96728 7.359954,0.20129 14.375598,3.22762 21.640064,4.42638 6.901643,1.13889 13.841024,3.09058 20.820364,2.62304 4.681802,-0.31363 8.982705,-2.81078 13.607011,-3.60668 6.592314,-1.13463 13.313724,-1.46365 20.000654,-1.6394 9.34534,-0.24562 18.94127,2.99294 28.03373,0.8197 4.78051,-1.14261 8.0361,-7.04441 12.95125,-7.04941 1.49157,-0.002 2.49372,1.74555 3.93455,2.13122 3.96053,1.06013 8.20782,0.64491 12.2955,0.32788 6.03779,-0.46828 17.86945,-3.2788 17.86945,-3.2788"
       id="path45760-6"
       inkscape:connector-curvature="0"
       sodipodi:nodetypes="caaaaaaaaaac" />
  </g>
</svg>
