<?xml version="1.0" encoding="UTF-8" standalone="no"?>
<!-- Created with Inkscape (http://www.inkscape.org/) -->

<svg
   xmlns:dc="http://purl.org/dc/elements/1.1/"
   xmlns:cc="http://creativecommons.org/ns#"
   xmlns:rdf="http://www.w3.org/1999/02/22-rdf-syntax-ns#"
   xmlns:svg="http://www.w3.org/2000/svg"
   xmlns="http://www.w3.org/2000/svg"
   xmlns:sodipodi="http://sodipodi.sourceforge.net/DTD/sodipodi-0.dtd"
   xmlns:inkscape="http://www.inkscape.org/namespaces/inkscape"
   width="744.09448819"
   height="1052.3622047"
   id="svg2"
   version="1.1"
   inkscape:version="0.48.4 r9939"
   sodipodi:docname="New document 1">
  <defs
     id="defs4" />
  <sodipodi:namedview
     id="base"
     pagecolor="#ffffff"
     bordercolor="#666666"
     borderopacity="1.0"
     inkscape:pageopacity="0.0"
     inkscape:pageshadow="2"
     inkscape:zoom="1.979899"
     inkscape:cx="228.65385"
     inkscape:cy="792.55122"
     inkscape:document-units="px"
     inkscape:current-layer="layer1"
     showgrid="false"
     inkscape:window-width="1680"
     inkscape:window-height="987"
     inkscape:window-x="-8"
     inkscape:window-y="-8"
     inkscape:window-maximized="1" />
  <metadata
     id="metadata7">
    <rdf:RDF>
      <cc:Work
         rdf:about="">
        <dc:format>image/svg+xml</dc:format>
        <dc:type
           rdf:resource="http://purl.org/dc/dcmitype/StillImage" />
        <dc:title></dc:title>
      </cc:Work>
    </rdf:RDF>
  </metadata>
  <g
     inkscape:label="Layer 1"
     inkscape:groupmode="layer"
     id="layer1">
    <path
       sodipodi:type="arc"
       style="fill:#803300;fill-opacity:1;stroke:#b67912;stroke-width:5;stroke-linecap:butt;stroke-linejoin:miter;stroke-miterlimit:4;stroke-opacity:1;stroke-dasharray:none;stroke-dashoffset:0"
       id="path2989"
       sodipodi:cx="371.42856"
       sodipodi:cy="308.07648"
       sodipodi:rx="92.14286"
       sodipodi:ry="92.14286"
       d="m 463.57142,308.07648 a 92.14286,92.14286 0 1 1 -184.28572,0 92.14286,92.14286 0 1 1 184.28572,0 z" />
    <path
       style="fill:none;stroke:#000000;stroke-width:1px;stroke-linecap:butt;stroke-linejoin:miter;stroke-opacity:1"
       d="m 373.75,234.1479 -7.14286,26.42857 11.78572,7.32143 1.78571,9.82142 0,5.53572"
       id="path3916"
       inkscape:connector-curvature="0" />
    <path
       style="fill:none;stroke:#000000;stroke-width:1px;stroke-linecap:butt;stroke-linejoin:miter;stroke-opacity:1"
       d="m 354.46429,234.50504 -0.35715,24.10714 12.5,1.60714"
       id="path3918"
       inkscape:connector-curvature="0" />
    <path
       style="fill:#247500;stroke:#73eb35;stroke-width:4;stroke-linecap:butt;stroke-linejoin:miter;stroke-opacity:1;stroke-miterlimit:4;stroke-dasharray:none;fill-opacity:1"
       d="m 288.75,247.00504 -14.10714,15.53571 24.82143,-3.03571 4.64285,16.96428 9.10715,-16.78571 11.25,9.64286 2.67857,-18.92857 7.5,9.46428 10.53571,-19.46428 4.10715,9.82142 14.64285,-12.85714 3.21429,13.39286 16.96428,-12.32143 5.71429,12.32143 11.96429,-9.64286 8.57142,15 8.03572,-9.46428 11.25,16.78571 5,-10.17857 7.67857,15.71428 2.5,-17.14285 12.5,1.60714 -9.46429,-10.35714 13.39286,-5.17857 -20,-5.53572 7.67857,-7.14286 -21.78571,-2.85714 8.75,-7.14286 -25.71429,-3.03571 8.57143,-7.32143 -24.64286,4.28572 0.17858,-8.03572 -18.92858,7.14286 -10.89285,-6.25 0.71428,8.03571 -22.32143,-3.57143 4.28572,5.89286 -32.32143,0.35714 3.57143,8.21429 -23.92857,2.5 6.78571,9.64286 -24.82143,3.57143 z"
       id="path3886"
       inkscape:connector-curvature="0" />
    <path
       style="fill:none;stroke:#000000;stroke-width:1px;stroke-linecap:butt;stroke-linejoin:miter;stroke-opacity:1"
       d="m 282.5,314.1479 35,-13.21429 22.67857,5.53571 15.71429,-12.14285"
       id="path3892"
       inkscape:connector-curvature="0" />
    <path
       style="fill:none;stroke:#000000;stroke-width:1px;stroke-linecap:butt;stroke-linejoin:miter;stroke-opacity:1"
       d="m 340,306.46932 9.10714,14.28572 12.85715,2.67857"
       id="path3894"
       inkscape:connector-curvature="0" />
    <path
       style="fill:none;stroke:#000000;stroke-width:1px;stroke-linecap:butt;stroke-linejoin:miter;stroke-opacity:1"
       d="m 317.14286,301.29075 -1.25,22.67857 13.75,11.25"
       id="path3896"
       inkscape:connector-curvature="0" />
    <path
       style="fill:none;stroke:#000000;stroke-width:1px;stroke-linecap:butt;stroke-linejoin:miter;stroke-opacity:1"
       d="m 328.39286,303.25504 c -0.17857,-3.57143 0.53571,-16.42857 0.53571,-16.42857 l -11.78571,-3.21429 -1.42857,5.17857"
       id="path3898"
       inkscape:connector-curvature="0" />
    <path
       style="fill:none;stroke:#000000;stroke-width:1px;stroke-linecap:butt;stroke-linejoin:miter;stroke-opacity:1"
       d="m 454.64286,341.6479 -46.42857,3.03571 -9.28572,-9.28571"
       id="path3900"
       inkscape:connector-curvature="0" />
    <path
       style="fill:none;stroke:#000000;stroke-width:1px;stroke-linecap:butt;stroke-linejoin:miter;stroke-opacity:1"
       d="m 420.35714,343.96932 -13.57142,18.03572 -16.07143,0.35714"
       id="path3902"
       inkscape:connector-curvature="0" />
    <path
       style="fill:none;stroke:#000000;stroke-width:1px;stroke-linecap:butt;stroke-linejoin:miter;stroke-opacity:1"
       d="m 391.42857,287.36218 7.67857,15.53572 15.71429,-1.78572 8.57143,15.71429 18.39286,-4.82143"
       id="path3904"
       inkscape:connector-curvature="0" />
    <path
       style="fill:none;stroke:#000000;stroke-width:1px;stroke-linecap:butt;stroke-linejoin:miter;stroke-opacity:1"
       d="m 414.64286,300.75504 1.25,-4.46429"
       id="path3906"
       inkscape:connector-curvature="0" />
    <path
       style="fill:none;stroke:#000000;stroke-width:1px;stroke-linecap:butt;stroke-linejoin:miter;stroke-opacity:1"
       d="m 399.10714,303.25504 -8.03571,4.10714"
       id="path3908"
       inkscape:connector-curvature="0" />
    <path
       style="fill:none;stroke:#000000;stroke-width:1px;stroke-linecap:butt;stroke-linejoin:miter;stroke-opacity:1"
       d="m 424.46429,327.8979 -1.07143,-11.60715"
       id="path3910"
       inkscape:connector-curvature="0" />
    <path
       style="fill:none;stroke:#000000;stroke-width:1px;stroke-linecap:butt;stroke-linejoin:miter;stroke-opacity:1"
       d="m 311.78571,373.43361 30.17858,-6.42857 23.92857,-23.39286 14.64286,0.35714"
       id="path3912"
       inkscape:connector-curvature="0" />
    <path
       style="fill:none;stroke:#000000;stroke-width:1px;stroke-linecap:butt;stroke-linejoin:miter;stroke-opacity:1"
       d="m 351.60714,358.96932 11.07143,4.64286 8.21429,-0.35714 6.60714,4.64286"
       id="path3914"
       inkscape:connector-curvature="0" />
    <path
       style="fill:none;stroke:#000000;stroke-width:1px;stroke-linecap:butt;stroke-linejoin:miter;stroke-opacity:1"
       d="m 426.96429,267.00504 0.17857,17.32143 -11.25,11.78571"
       id="path3920"
       inkscape:connector-curvature="0" />
  </g>
</svg>
