<?xml version="1.0" encoding="UTF-8" standalone="no"?>
<!-- Created with Inkscape (http://www.inkscape.org/) -->

<svg
   xmlns:dc="http://purl.org/dc/elements/1.1/"
   xmlns:cc="http://creativecommons.org/ns#"
   xmlns:rdf="http://www.w3.org/1999/02/22-rdf-syntax-ns#"
   xmlns:svg="http://www.w3.org/2000/svg"
   xmlns="http://www.w3.org/2000/svg"
   xmlns:sodipodi="http://sodipodi.sourceforge.net/DTD/sodipodi-0.dtd"
   xmlns:inkscape="http://www.inkscape.org/namespaces/inkscape"
   width="744.09448819"
   height="1052.3622047"
   id="svg2"
   version="1.1"
   inkscape:version="0.48.4 r9939"
   sodipodi:docname="semiCirclePlatform.svg"
   inkscape:export-filename="E:\Environmental Shenanigans\Environmental Shenanigans\Environmental-Shenanigans\Assets\Sprites\Platforms\semiCirclePlatform.png"
   inkscape:export-xdpi="500"
   inkscape:export-ydpi="500">
  <defs
     id="defs4" />
  <sodipodi:namedview
     id="base"
     pagecolor="#ffffff"
     bordercolor="#666666"
     borderopacity="1.0"
     inkscape:pageopacity="0.0"
     inkscape:pageshadow="2"
     inkscape:zoom="2.8"
     inkscape:cx="371.93166"
     inkscape:cy="806.89803"
     inkscape:document-units="px"
     inkscape:current-layer="layer1"
     showgrid="false"
     inkscape:window-width="1680"
     inkscape:window-height="987"
     inkscape:window-x="-8"
     inkscape:window-y="-8"
     inkscape:window-maximized="1" />
  <metadata
     id="metadata7">
    <rdf:RDF>
      <cc:Work
         rdf:about="">
        <dc:format>image/svg+xml</dc:format>
        <dc:type
           rdf:resource="http://purl.org/dc/dcmitype/StillImage" />
        <dc:title></dc:title>
      </cc:Work>
    </rdf:RDF>
  </metadata>
  <g
     inkscape:label="Layer 1"
     inkscape:groupmode="layer"
     id="layer1">
    <path
       style="fill:#803300;fill-opacity:1;stroke:#b67a12;stroke-width:2.5;stroke-linecap:butt;stroke-linejoin:miter;stroke-miterlimit:4;stroke-opacity:1;stroke-dasharray:none;stroke-dashoffset:0"
       d="M 371.4375 215.9375 C 320.5484 215.9375 279.28125 257.1734 279.28125 308.0625 C 279.28125 309.89696 279.36302 311.72332 279.46875 313.53125 L 463.40625 313.53125 C 463.51193 311.72376 463.5625 309.8965 463.5625 308.0625 C 463.5625 257.1734 422.3266 215.9375 371.4375 215.9375 z "
       id="path2989" />
    <path
       style="fill:none;stroke:#000000;stroke-width:1px;stroke-linecap:butt;stroke-linejoin:miter;stroke-opacity:1"
       d="m 373.75,234.1479 -7.14286,26.42857 11.78572,7.32143 1.78571,9.82142 0,5.53572"
       id="path3916"
       inkscape:connector-curvature="0" />
    <path
       style="fill:none;stroke:#000000;stroke-width:1px;stroke-linecap:butt;stroke-linejoin:miter;stroke-opacity:1"
       d="m 354.46429,234.50504 -0.35715,24.10714 12.5,1.60714"
       id="path3918"
       inkscape:connector-curvature="0" />
    <path
       style="fill:none;stroke:#000000;stroke-width:1px;stroke-linecap:butt;stroke-linejoin:miter;stroke-opacity:1"
       d="m 425.7016,250.08498 0.17857,17.32143 -11.25,11.78571"
       id="path3920"
       inkscape:connector-curvature="0" />
    <path
       style="fill:#247500;fill-opacity:1;stroke:#73eb35;stroke-width:2;stroke-linecap:butt;stroke-linejoin:miter;stroke-miterlimit:4;stroke-opacity:1;stroke-dasharray:none"
       d="m 293.92703,247.38385 -13.22325,13.76794 18.76051,-1.64675 1.9912,12.16606 9.23342,-20.57379 9.10342,6.86494 5.45649,-21.83275 8.25762,14.38877 12.17721,-24.00997 4.10715,14.61965 15.653,-16.51895 1.9516,15.03436 19.48966,-16.23577 4.95668,19.77131 12.09055,-17.97662 11.22307,22.3236 5.51034,-13.37862 9.2297,21.83647 4.87373,-9.79976 13.73948,24.30058 -3.68718,-18.65808 10.8585,4.6376 -12.11594,-13.26133 13.39286,-2.52692 -21.6415,-7.05095 8.94126,-4.87002 -23.30093,-5.12998 8.75,-3.60733 -23.94653,-4.6772 11.34935,-5.93247 -27.92585,3.02303 4.47172,-7.40438 -18.29723,6.63778 -12.78689,-6.37626 -0.92721,7.40436 -24.21547,-3.31889 7.56872,6.90301 -30.80621,1.49356 6.47562,6.69906 -22.28707,5.15165 8.17467,2.82433 -22.29605,11.90519 z"
       id="path3886"
       inkscape:connector-curvature="0"
       sodipodi:nodetypes="ccccccccccccccccccccccccccccccccccccccccccc" />
    <path
       style="fill:none;stroke:#000000;stroke-width:1px;stroke-linecap:butt;stroke-linejoin:miter;stroke-opacity:1"
       d="m 282.5,311.11744 35,-13.21429 22.67857,5.53571 15.71429,-12.14285"
       id="path3892"
       inkscape:connector-curvature="0" />
    <path
       style="fill:none;stroke:#000000;stroke-width:1px;stroke-linecap:butt;stroke-linejoin:miter;stroke-opacity:1"
       d="m 328.39286,300.22458 c -0.17857,-3.57143 0.53571,-16.42857 0.53571,-16.42857 l -11.78571,-3.21429 -1.42857,5.17857"
       id="path3898"
       inkscape:connector-curvature="0" />
    <path
       style="fill:none;stroke:#000000;stroke-width:1px;stroke-linecap:butt;stroke-linejoin:miter;stroke-opacity:1"
       d="m 390.16588,270.44212 7.67857,15.53572 15.71429,-1.78572 8.57143,15.71429 18.39286,-4.82143"
       id="path3904"
       inkscape:connector-curvature="0" />
    <path
       style="fill:none;stroke:#000000;stroke-width:1px;stroke-linecap:butt;stroke-linejoin:miter;stroke-opacity:1"
       d="m 413.38017,283.83498 1.25,-4.46429"
       id="path3906"
       inkscape:connector-curvature="0" />
    <path
       style="fill:none;stroke:#000000;stroke-width:1px;stroke-linecap:butt;stroke-linejoin:miter;stroke-opacity:1"
       d="m 397.84445,286.33498 -8.03571,4.10714"
       id="path3908"
       inkscape:connector-curvature="0" />
    <path
       style="fill:none;stroke:#000000;stroke-width:1px;stroke-linecap:butt;stroke-linejoin:miter;stroke-opacity:1"
       d="m 423.2016,310.97784 -1.07143,-11.60715"
       id="path3910"
       inkscape:connector-curvature="0" />
  </g>
</svg>
