<?xml version="1.0" encoding="UTF-8" standalone="no"?>
<!-- Created with Inkscape (http://www.inkscape.org/) -->

<svg
   xmlns:dc="http://purl.org/dc/elements/1.1/"
   xmlns:cc="http://creativecommons.org/ns#"
   xmlns:rdf="http://www.w3.org/1999/02/22-rdf-syntax-ns#"
   xmlns:svg="http://www.w3.org/2000/svg"
   xmlns="http://www.w3.org/2000/svg"
   xmlns:sodipodi="http://sodipodi.sourceforge.net/DTD/sodipodi-0.dtd"
   xmlns:inkscape="http://www.inkscape.org/namespaces/inkscape"
   width="744.09448819"
   height="1052.3622047"
   id="svg4334"
   version="1.1"
   inkscape:version="0.48.4 r9939"
   sodipodi:docname="castle.svg">
  <defs
     id="defs4336" />
  <sodipodi:namedview
     id="base"
     pagecolor="#ffffff"
     bordercolor="#666666"
     borderopacity="1.0"
     inkscape:pageopacity="0.0"
     inkscape:pageshadow="2"
     inkscape:zoom="1.7368116"
     inkscape:cx="394.17028"
     inkscape:cy="932.68435"
     inkscape:document-units="px"
     inkscape:current-layer="layer1"
     showgrid="false"
     inkscape:window-width="840"
     inkscape:window-height="987"
     inkscape:window-x="832"
     inkscape:window-y="-8"
     inkscape:window-maximized="0" />
  <metadata
     id="metadata4339">
    <rdf:RDF>
      <cc:Work
         rdf:about="">
        <dc:format>image/svg+xml</dc:format>
        <dc:type
           rdf:resource="http://purl.org/dc/dcmitype/StillImage" />
        <dc:title></dc:title>
      </cc:Work>
    </rdf:RDF>
  </metadata>
  <g
     inkscape:label="Layer 1"
     inkscape:groupmode="layer"
     id="layer1">
    <path
       style="fill:none;stroke:#000000;stroke-width:2.5;stroke-linecap:butt;stroke-linejoin:miter;stroke-miterlimit:4;stroke-opacity:1;stroke-dasharray:none"
       d="m 465.14763,60.603528 -23.73859,-79.80206"
       id="path5054"
       inkscape:connector-curvature="0" />
    <g
       id="g5042"
       inkscape:transform-center-y="-151.87026"
       transform="matrix(0.99376182,0.11152332,-0.11152332,0.99376182,257.14871,-396.60148)"
       inkscape:transform-center-x="-10.651037">
      <path
         inkscape:transform-center-y="-52.389968"
         inkscape:transform-center-x="0.016123125"
         sodipodi:nodetypes="sssccs"
         inkscape:connector-curvature="0"
         id="path4959"
         d="m 246.47723,676.58545 c 0,11.71573 -9.49748,21.2132 -21.21321,21.2132 -11.71573,0 -21.2132,-9.49747 -21.2132,-21.2132 0,-11.71573 4.54568,-113.13616 4.54568,-118.44038 6.74327,6.56599 28.06103,5.96066 33.18275,0.15228 0.0508,6.61676 4.69798,112.43024 4.69798,118.2881 z"
         style="fill:#784421;fill-opacity:1;stroke:#000000;stroke-width:2;stroke-linecap:butt;stroke-linejoin:miter;stroke-miterlimit:4;stroke-opacity:1;stroke-dashoffset:0" />
      <path
         inkscape:transform-center-y="-123.22693"
         inkscape:transform-center-x="0.016133221"
         transform="translate(20.455589,22.980971)"
         d="m 229.30462,534.15393 c 0,3.6263 -10.96732,6.56599 -24.49619,6.56599 -13.52888,0 -24.4962,-2.93969 -24.4962,-6.56599 0,-3.6263 10.96732,-6.56599 24.4962,-6.56599 13.52887,0 24.49619,2.93969 24.49619,6.56599 z"
         sodipodi:ry="6.5659914"
         sodipodi:rx="24.496199"
         sodipodi:cy="534.15393"
         sodipodi:cx="204.80843"
         id="path5004"
         style="fill:#d4aa00;fill-opacity:1;stroke:#000000;stroke-width:1.5;stroke-linecap:butt;stroke-linejoin:miter;stroke-miterlimit:4;stroke-opacity:1;stroke-dasharray:none;stroke-dashoffset:0"
         sodipodi:type="arc" />
      <path
         inkscape:transform-center-y="-173.82925"
         inkscape:transform-center-x="0.016123125"
         sodipodi:nodetypes="ccccc"
         inkscape:connector-curvature="0"
         id="rect4962"
         d="m 215.66758,453.34174 c 5.97673,2.27284 12.45854,1.76777 18.68782,0 l 3.53553,102.78302 c -8.1654,4.79822 -16.58334,4.79822 -25.25381,0 z"
         style="fill:#784421;fill-opacity:1;stroke:#000000;stroke-width:2;stroke-linecap:butt;stroke-linejoin:miter;stroke-miterlimit:4;stroke-opacity:1;stroke-dashoffset:0" />
      <path
         inkscape:transform-center-y="-229.29295"
         inkscape:transform-center-x="0.26866859"
         transform="matrix(0.71991554,0,0,0.71991554,77.566711,66.523162)"
         d="m 229.30462,534.15393 c 0,3.6263 -10.96732,6.56599 -24.49619,6.56599 -13.52888,0 -24.4962,-2.93969 -24.4962,-6.56599 0,-3.6263 10.96732,-6.56599 24.4962,-6.56599 13.52887,0 24.49619,2.93969 24.49619,6.56599 z"
         sodipodi:ry="6.5659914"
         sodipodi:rx="24.496199"
         sodipodi:cy="534.15393"
         sodipodi:cx="204.80843"
         id="path5004-6"
         style="fill:#d4aa00;fill-opacity:1;stroke:#000000;stroke-width:1.5;stroke-linecap:butt;stroke-linejoin:miter;stroke-miterlimit:4;stroke-opacity:1;stroke-dasharray:none;stroke-dashoffset:0"
         sodipodi:type="arc" />
      <path
         inkscape:transform-center-y="-277.05359"
         inkscape:transform-center-x="0.26866312"
         sodipodi:nodetypes="ccccc"
         inkscape:connector-curvature="0"
         id="rect4962-4"
         d="m 219.50546,366.50712 c 1.53515,-15.616 9.04221,-15.52698 10.72226,0 l 2.02854,83.21611 c -4.68496,2.75301 -9.51481,2.75301 -14.48955,0 z"
         style="fill:#784421;fill-opacity:1;stroke:#000000;stroke-width:2;stroke-linecap:butt;stroke-linejoin:miter;stroke-miterlimit:4;stroke-opacity:1;stroke-dasharray:none;stroke-dashoffset:0" />
      <path
         inkscape:transform-center-y="-111.82243"
         inkscape:transform-center-x="-0.029826875"
         sodipodi:nodetypes="ccccc"
         inkscape:connector-curvature="0"
         id="rect4983"
         d="m 200.82747,558.70978 c 12.60231,7.88619 38.61016,6.37756 48.96501,-0.35714 l 0,14.55881 c -15.5968,8.29699 -36.25242,7.07752 -48.96501,0.35714 z"
         style="fill:#d4aa00;fill-opacity:1;stroke:#000000;stroke-width:1.5;stroke-linecap:butt;stroke-linejoin:miter;stroke-miterlimit:4;stroke-opacity:1;stroke-dasharray:none;stroke-dashoffset:0" />
      <path
         inkscape:transform-center-y="-220.84783"
         inkscape:transform-center-x="0.30181312"
         sodipodi:nodetypes="ccccc"
         inkscape:connector-curvature="0"
         id="rect4983-0"
         d="m 207.50551,452.49874 c 8.99409,5.62826 27.55553,4.55159 34.94565,-0.25489 l 0,10.39042 c -11.13123,5.92144 -25.87285,5.05113 -34.94565,0.25489 z"
         style="fill:#d4aa00;fill-opacity:1;stroke:#000000;stroke-width:1.07052922;stroke-linecap:butt;stroke-linejoin:miter;stroke-miterlimit:4;stroke-opacity:1;stroke-dasharray:none;stroke-dashoffset:0" />
    </g>
    <path
       style="fill:#ac9393;stroke:#000000;stroke-width:2;stroke-linecap:butt;stroke-linejoin:miter;stroke-miterlimit:4;stroke-opacity:1;stroke-dasharray:none"
       d="m 280,343.07647 161.42857,40.71428 c 0,-119.05143 -25.155,-264.04352 -80.71429,-271.42857 C 305.15499,104.97713 280,239.72092 280,343.07647 z"
       id="path4937"
       inkscape:connector-curvature="0"
       sodipodi:nodetypes="cczc" />
    <path
       style="fill:#784421;fill-opacity:1;stroke:#000000;stroke-width:3;stroke-linecap:butt;stroke-linejoin:miter;stroke-miterlimit:4;stroke-opacity:1;stroke-dashoffset:0;stroke-dasharray:none"
       d="m 358.60416,191.71221 c 22.07136,3.02531 27.27412,117.49299 27.27412,177.5343 l -54.54825,-13.63706 c 0,-60.75423 5.20277,-166.92255 27.27413,-163.89724 z"
       id="rect4342"
       inkscape:connector-curvature="0"
       sodipodi:nodetypes="zccz" />
    <path
       style="fill:#e3dbdb;fill-opacity:1;stroke:#000000;stroke-width:3;stroke-linecap:butt;stroke-linejoin:miter;stroke-miterlimit:4;stroke-opacity:1;stroke-dasharray:none;stroke-dashoffset:0"
       d="m 357.84414,191.18159 c 22.07136,3.02531 27.27412,117.49299 27.27412,177.5343 l 12.36405,3.19916 c 0.39335,-147.63717 -19.72586,-191.65931 -39.63818,-194.3034 -19.91232,-2.64409 -34.46538,36.36087 -36.69363,174.69343 l 9.41951,2.77375 c 0,-60.75423 5.20277,-166.92255 27.27413,-163.89724 z"
       id="rect4342-9"
       inkscape:connector-curvature="0"
       sodipodi:nodetypes="zcczccz" />
    <path
       style="fill:none;stroke:#000000;stroke-width:1.5;stroke-linecap:butt;stroke-linejoin:miter;stroke-opacity:1;stroke-miterlimit:4;stroke-dasharray:none"
       d="m 357.5,177.36218 -0.71429,13.92857"
       id="path4889"
       inkscape:connector-curvature="0" />
    <path
       style="fill:none;stroke:#000000;stroke-width:1.5;stroke-linecap:butt;stroke-linejoin:miter;stroke-opacity:1;stroke-miterlimit:4;stroke-dasharray:none"
       d="m 364.28572,196.29075 7.85714,-8.21428"
       id="path4891"
       inkscape:connector-curvature="0" />
    <path
       style="fill:none;stroke:#000000;stroke-width:1.5;stroke-linecap:butt;stroke-linejoin:miter;stroke-opacity:1;stroke-miterlimit:4;stroke-dasharray:none"
       d="m 371.25,210.04075 9.64286,-4.64285"
       id="path4893"
       inkscape:connector-curvature="0" />
    <path
       style="fill:none;stroke:#000000;stroke-width:1.5;stroke-linecap:butt;stroke-linejoin:miter;stroke-opacity:1;stroke-miterlimit:4;stroke-dasharray:none"
       d="m 374.28572,223.43361 10.17857,-3.39286"
       id="path4895"
       inkscape:connector-curvature="0" />
    <path
       style="fill:none;stroke:#000000;stroke-width:1.5;stroke-linecap:butt;stroke-linejoin:miter;stroke-opacity:1;stroke-miterlimit:4;stroke-dasharray:none"
       d="M 376.78572,235.93361 387.5,233.07647"
       id="path4897"
       inkscape:connector-curvature="0" />
    <path
       style="fill:none;stroke:#000000;stroke-width:1.5;stroke-linecap:butt;stroke-linejoin:miter;stroke-opacity:1;stroke-miterlimit:4;stroke-dasharray:none"
       d="m 378.75,249.32647 11.60714,-1.25"
       id="path4899"
       inkscape:connector-curvature="0" />
    <path
       style="fill:none;stroke:#000000;stroke-width:1.5;stroke-linecap:butt;stroke-linejoin:miter;stroke-opacity:1;stroke-miterlimit:4;stroke-dasharray:none"
       d="M 380.35714,262.8979 392.5,262.36218"
       id="path4901"
       inkscape:connector-curvature="0" />
    <path
       style="fill:none;stroke:#000000;stroke-width:1.5;stroke-linecap:butt;stroke-linejoin:miter;stroke-opacity:1;stroke-miterlimit:4;stroke-dasharray:none"
       d="M 381.42857,277.8979 393.75,278.43361"
       id="path4903"
       inkscape:connector-curvature="0" />
    <path
       style="fill:none;stroke:#000000;stroke-width:1.5;stroke-linecap:butt;stroke-linejoin:miter;stroke-opacity:1;stroke-miterlimit:4;stroke-dasharray:none"
       d="m 382.85714,294.50504 11.96429,1.07143"
       id="path4905"
       inkscape:connector-curvature="0" />
    <path
       style="fill:none;stroke:#000000;stroke-width:1.5;stroke-linecap:butt;stroke-linejoin:miter;stroke-opacity:1;stroke-miterlimit:4;stroke-dasharray:none"
       d="m 383.75,308.96932 12.32143,1.42858"
       id="path4907"
       inkscape:connector-curvature="0" />
    <path
       style="fill:none;stroke:#000000;stroke-width:1.5;stroke-linecap:butt;stroke-linejoin:miter;stroke-opacity:1;stroke-miterlimit:4;stroke-dasharray:none"
       d="m 384.10714,323.43361 12.32143,3.21429"
       id="path4909"
       inkscape:connector-curvature="0" />
    <path
       style="fill:none;stroke:#000000;stroke-width:1.5;stroke-linecap:butt;stroke-linejoin:miter;stroke-opacity:1;stroke-miterlimit:4;stroke-dasharray:none"
       d="m 384.64286,339.32647 12.5,4.28571"
       id="path4911"
       inkscape:connector-curvature="0" />
    <path
       style="fill:none;stroke:#000000;stroke-width:1.5;stroke-linecap:butt;stroke-linejoin:miter;stroke-opacity:1;stroke-miterlimit:4;stroke-dasharray:none"
       d="m 385.17857,355.04075 11.42857,3.39286"
       id="path4913"
       inkscape:connector-curvature="0" />
    <path
       style="fill:none;stroke:#000000;stroke-width:1.5;stroke-linecap:butt;stroke-linejoin:miter;stroke-opacity:1;stroke-miterlimit:4;stroke-dasharray:none"
       d="m 350.53572,194.68361 -6.96429,-9.10714"
       id="path4915"
       inkscape:connector-curvature="0" />
    <path
       style="fill:none;stroke:#000000;stroke-width:1.5;stroke-linecap:butt;stroke-linejoin:miter;stroke-opacity:1;stroke-miterlimit:4;stroke-dasharray:none"
       d="m 344.28572,207.18361 -8.57143,-5.35714"
       id="path4917"
       inkscape:connector-curvature="0" />
    <path
       style="fill:none;stroke:#000000;stroke-width:1.5;stroke-linecap:butt;stroke-linejoin:miter;stroke-opacity:1;stroke-miterlimit:4;stroke-dasharray:none"
       d="m 339.82143,220.93361 -7.5,-4.46429"
       id="path4919"
       inkscape:connector-curvature="0" />
    <path
       style="fill:none;stroke:#000000;stroke-width:1.5;stroke-linecap:butt;stroke-linejoin:miter;stroke-opacity:1;stroke-miterlimit:4;stroke-dasharray:none"
       d="m 337.32143,235.57647 -8.39286,-3.03572"
       id="path4921"
       inkscape:connector-curvature="0" />
    <path
       style="fill:none;stroke:#000000;stroke-width:1.5;stroke-linecap:butt;stroke-linejoin:miter;stroke-opacity:1;stroke-miterlimit:4;stroke-dasharray:none"
       d="m 335.89286,249.50504 -9.46429,-2.32143"
       id="path4923"
       inkscape:connector-curvature="0" />
    <path
       style="fill:none;stroke:#000000;stroke-width:1.5;stroke-linecap:butt;stroke-linejoin:miter;stroke-opacity:1;stroke-miterlimit:4;stroke-dasharray:none"
       d="m 334.28571,264.32647 -9.10714,-0.71429"
       id="path4925"
       inkscape:connector-curvature="0" />
    <path
       style="fill:none;stroke:#000000;stroke-width:1.5;stroke-linecap:butt;stroke-linejoin:miter;stroke-opacity:1;stroke-miterlimit:4;stroke-dasharray:none"
       d="m 333.21429,278.07647 -9.10715,-0.17857"
       id="path4927"
       inkscape:connector-curvature="0" />
    <path
       style="fill:none;stroke:#000000;stroke-width:1.5;stroke-linecap:butt;stroke-linejoin:miter;stroke-opacity:1;stroke-miterlimit:4;stroke-dasharray:none"
       d="m 331.78571,296.11218 c -0.71428,0 -8.39285,-0.53571 -8.39285,-0.53571"
       id="path4929"
       inkscape:connector-curvature="0" />
    <path
       style="fill:none;stroke:#000000;stroke-width:1.5;stroke-linecap:butt;stroke-linejoin:miter;stroke-opacity:1;stroke-miterlimit:4;stroke-dasharray:none"
       d="M 331.60714,313.96932 322.5,313.07647"
       id="path4931"
       inkscape:connector-curvature="0" />
    <path
       style="fill:none;stroke:#000000;stroke-width:1.5;stroke-linecap:butt;stroke-linejoin:miter;stroke-opacity:1;stroke-miterlimit:4;stroke-dasharray:none"
       d="m 330.89286,328.07647 -9.10715,-1.07143"
       id="path4933"
       inkscape:connector-curvature="0" />
    <path
       style="fill:none;stroke:#000000;stroke-width:1.5;stroke-linecap:butt;stroke-linejoin:miter;stroke-opacity:1;stroke-miterlimit:4;stroke-dasharray:none"
       d="m 330.53571,342.18361 -8.92857,-2.14286"
       id="path4935"
       inkscape:connector-curvature="0" />
    <path
       style="fill:#d4aa00;fill-opacity:0;stroke:#000000;stroke-width:3;stroke-linecap:butt;stroke-linejoin:miter;stroke-miterlimit:4;stroke-opacity:1;stroke-dashoffset:0"
       d="m 508.41407,108.31632 c 1.91515,14.82313 -7.96158,30.63517 -22.78471,33.81301 -14.45568,3.09907 -27.21168,1.04622 -34.10888,-12.9147 -10.12779,-20.50006 7.00414,-66.483542 13.49574,-68.153332 6.49159,-1.66978 40.8563,27.58362 43.39785,47.255022 z"
       id="path5051"
       inkscape:connector-curvature="0"
       sodipodi:nodetypes="ssszs"
       inkscape:transform-center-y="43.915446"
       inkscape:transform-center-x="-14.935284" />
    <g
       id="g5238"
       transform="matrix(0.20908284,-0.09898569,0.09898569,0.20908284,328.73009,-41.945512)">
      <path
         sodipodi:nodetypes="csccscc"
         inkscape:connector-curvature="0"
         id="path3850"
         d="m 420.65838,908.59313 c -17.62787,81.59926 -90.87945,99.82537 -125.48587,99.82537 -34.60643,0 -108.86815,-19.74131 -123.97064,-96.79492 -7.92732,-2.51545 -12.86144,-23.15792 -2.52538,-28.7679 11.52114,-69.23804 91.88959,-100.83548 126.49602,-100.83548 34.60642,0 123.01029,35.39867 124.47571,100.83548 8.03193,3.0337 7.90245,20.61772 1.01016,25.73745 z"
         style="fill:#848484;fill-opacity:1;stroke:#000000;stroke-width:3;stroke-linecap:butt;stroke-linejoin:miter;stroke-miterlimit:4;stroke-opacity:1;stroke-dasharray:none;stroke-dashoffset:0" />
      <path
         transform="matrix(0.78270547,0.62239228,-0.62239228,0.78270547,153.46386,460.90755)"
         d="m 309.86428,268.98889 c 0,3.34735 -1.9221,6.06092 -4.29314,6.06092 -2.37104,0 -4.29315,-2.71357 -4.29315,-6.06092 0,-3.34735 1.92211,-6.06091 4.29315,-6.06091 2.37104,0 4.29314,2.71356 4.29314,6.06091 z"
         sodipodi:ry="6.0609155"
         sodipodi:rx="4.2931485"
         sodipodi:cy="268.98889"
         sodipodi:cx="305.57114"
         id="path6021"
         style="opacity:0.62389377;fill:#1e1e1e;fill-opacity:1;stroke:#000000;stroke-width:0;stroke-linecap:butt;stroke-linejoin:miter;stroke-miterlimit:4;stroke-opacity:1;stroke-dasharray:none;stroke-dashoffset:0"
         sodipodi:type="arc" />
      <path
         transform="matrix(0.936098,0.3517393,-0.3517393,0.936098,104.75211,626.59915)"
         d="m 309.86428,268.98889 c 0,3.34735 -1.9221,6.06092 -4.29314,6.06092 -2.37104,0 -4.29315,-2.71357 -4.29315,-6.06092 0,-3.34735 1.92211,-6.06091 4.29315,-6.06091 2.37104,0 4.29314,2.71356 4.29314,6.06091 z"
         sodipodi:ry="6.0609155"
         sodipodi:rx="4.2931485"
         sodipodi:cy="268.98889"
         sodipodi:cx="305.57114"
         id="path6021-5"
         style="opacity:0.62389377;fill:#1e1e1e;fill-opacity:1;stroke:#000000;stroke-width:0;stroke-linecap:butt;stroke-linejoin:miter;stroke-miterlimit:4;stroke-opacity:1;stroke-dasharray:none;stroke-dashoffset:0"
         sodipodi:type="arc" />
      <path
         transform="matrix(0.3645998,0.13699856,-0.13699856,0.3645998,272.91321,715.89033)"
         d="m 309.86428,268.98889 c 0,3.34735 -1.9221,6.06092 -4.29314,6.06092 -2.37104,0 -4.29315,-2.71357 -4.29315,-6.06092 0,-3.34735 1.92211,-6.06091 4.29315,-6.06091 2.37104,0 4.29314,2.71356 4.29314,6.06091 z"
         sodipodi:ry="6.0609155"
         sodipodi:rx="4.2931485"
         sodipodi:cy="268.98889"
         sodipodi:cx="305.57114"
         id="path6021-5-9"
         style="opacity:0.62389377;fill:#1e1e1e;fill-opacity:1;stroke:#000000;stroke-width:0;stroke-linecap:butt;stroke-linejoin:miter;stroke-miterlimit:4;stroke-opacity:1;stroke-dasharray:none;stroke-dashoffset:0"
         sodipodi:type="arc" />
      <path
         transform="matrix(0.90036709,-0.21447028,0.4930508,0.39164723,-182.40565,918.16221)"
         d="m 309.86428,268.98889 c 0,3.34735 -1.9221,6.06092 -4.29314,6.06092 -2.37104,0 -4.29315,-2.71357 -4.29315,-6.06092 0,-3.34735 1.92211,-6.06091 4.29315,-6.06091 2.37104,0 4.29314,2.71356 4.29314,6.06091 z"
         sodipodi:ry="6.0609155"
         sodipodi:rx="4.2931485"
         sodipodi:cy="268.98889"
         sodipodi:cx="305.57114"
         id="path6021-5-98"
         style="opacity:0.62389377;fill:#1e1e1e;fill-opacity:1;stroke:#000000;stroke-width:0;stroke-linecap:butt;stroke-linejoin:miter;stroke-miterlimit:4;stroke-opacity:1;stroke-dasharray:none;stroke-dashoffset:0"
         sodipodi:type="arc" />
      <path
         transform="matrix(0.67589663,-0.38528103,0.38528103,0.67589663,61.89586,776.44522)"
         d="m 309.86428,268.98889 c 0,3.34735 -1.9221,6.06092 -4.29314,6.06092 -2.37104,0 -4.29315,-2.71357 -4.29315,-6.06092 0,-3.34735 1.92211,-6.06091 4.29315,-6.06091 2.37104,0 4.29314,2.71356 4.29314,6.06091 z"
         sodipodi:ry="6.0609155"
         sodipodi:rx="4.2931485"
         sodipodi:cy="268.98889"
         sodipodi:cx="305.57114"
         id="path6021-5-1"
         style="opacity:0.62389377;fill:#1e1e1e;fill-opacity:1;stroke:#000000;stroke-width:0;stroke-linecap:butt;stroke-linejoin:miter;stroke-miterlimit:4;stroke-opacity:1;stroke-dasharray:none;stroke-dashoffset:0"
         sodipodi:type="arc" />
      <path
         transform="matrix(0.3645998,0.13699856,-0.13699856,0.3645998,150.81952,804.96267)"
         d="m 309.86428,268.98889 c 0,3.34735 -1.9221,6.06092 -4.29314,6.06092 -2.37104,0 -4.29315,-2.71357 -4.29315,-6.06092 0,-3.34735 1.92211,-6.06091 4.29315,-6.06091 2.37104,0 4.29314,2.71356 4.29314,6.06091 z"
         sodipodi:ry="6.0609155"
         sodipodi:rx="4.2931485"
         sodipodi:cy="268.98889"
         sodipodi:cx="305.57114"
         id="path6021-5-9-8"
         style="opacity:0.62389377;fill:#1e1e1e;fill-opacity:1;stroke:#000000;stroke-width:0;stroke-linecap:butt;stroke-linejoin:miter;stroke-miterlimit:4;stroke-opacity:1;stroke-dasharray:none;stroke-dashoffset:0"
         sodipodi:type="arc" />
      <path
         transform="matrix(0.83532076,0.39861965,0.13767603,0.61443629,-20.451315,546.75025)"
         d="m 309.86428,268.98889 c 0,3.34735 -1.9221,6.06092 -4.29314,6.06092 -2.37104,0 -4.29315,-2.71357 -4.29315,-6.06092 0,-3.34735 1.92211,-6.06091 4.29315,-6.06091 2.37104,0 4.29314,2.71356 4.29314,6.06091 z"
         sodipodi:ry="6.0609155"
         sodipodi:rx="4.2931485"
         sodipodi:cy="268.98889"
         sodipodi:cx="305.57114"
         id="path6021-5-98-6"
         style="opacity:0.62389377;fill:#1e1e1e;fill-opacity:1;stroke:#000000;stroke-width:0;stroke-linecap:butt;stroke-linejoin:miter;stroke-miterlimit:4;stroke-opacity:1;stroke-dasharray:none;stroke-dashoffset:0"
         sodipodi:type="arc" />
      <path
         transform="matrix(0.19766407,0.33560473,-0.33560473,0.19766407,306.07499,654.63918)"
         d="m 309.86428,268.98889 c 0,3.34735 -1.9221,6.06092 -4.29314,6.06092 -2.37104,0 -4.29315,-2.71357 -4.29315,-6.06092 0,-3.34735 1.92211,-6.06091 4.29315,-6.06091 2.37104,0 4.29314,2.71356 4.29314,6.06091 z"
         sodipodi:ry="6.0609155"
         sodipodi:rx="4.2931485"
         sodipodi:cy="268.98889"
         sodipodi:cx="305.57114"
         id="path6021-5-9-8-6"
         style="opacity:0.62389377;fill:#1e1e1e;fill-opacity:1;stroke:#000000;stroke-width:0;stroke-linecap:butt;stroke-linejoin:miter;stroke-miterlimit:4;stroke-opacity:1;stroke-dasharray:none;stroke-dashoffset:0"
         sodipodi:type="arc" />
      <path
         transform="matrix(0.76793442,0.12471751,-0.12471751,0.76793442,100.37439,565.15919)"
         d="m 309.86428,268.98889 c 0,3.34735 -1.9221,6.06092 -4.29314,6.06092 -2.37104,0 -4.29315,-2.71357 -4.29315,-6.06092 0,-3.34735 1.92211,-6.06091 4.29315,-6.06091 2.37104,0 4.29314,2.71356 4.29314,6.06091 z"
         sodipodi:ry="6.0609155"
         sodipodi:rx="4.2931485"
         sodipodi:cy="268.98889"
         sodipodi:cx="305.57114"
         id="path6021-5-1-2-0"
         style="opacity:0.62389377;fill:#1e1e1e;fill-opacity:1;stroke:#000000;stroke-width:0;stroke-linecap:butt;stroke-linejoin:miter;stroke-miterlimit:4;stroke-opacity:1;stroke-dasharray:none;stroke-dashoffset:0"
         sodipodi:type="arc" />
      <path
         transform="matrix(0.78270547,0.62239228,-0.62239228,0.78270547,228.21516,450.55348)"
         d="m 309.86428,268.98889 c 0,3.34735 -1.9221,6.06092 -4.29314,6.06092 -2.37104,0 -4.29315,-2.71357 -4.29315,-6.06092 0,-3.34735 1.92211,-6.06091 4.29315,-6.06091 2.37104,0 4.29314,2.71356 4.29314,6.06091 z"
         sodipodi:ry="6.0609155"
         sodipodi:rx="4.2931485"
         sodipodi:cy="268.98889"
         sodipodi:cx="305.57114"
         id="path6021-3"
         style="opacity:0.62389377;fill:#1e1e1e;fill-opacity:1;stroke:#000000;stroke-width:0;stroke-linecap:butt;stroke-linejoin:miter;stroke-miterlimit:4;stroke-opacity:1;stroke-dasharray:none;stroke-dashoffset:0"
         sodipodi:type="arc" />
      <path
         transform="matrix(-0.20050808,0.33391336,-0.33391336,-0.20050808,435.45251,887.1983)"
         d="m 309.86428,268.98889 c 0,3.34735 -1.9221,6.06092 -4.29314,6.06092 -2.37104,0 -4.29315,-2.71357 -4.29315,-6.06092 0,-3.34735 1.92211,-6.06091 4.29315,-6.06091 2.37104,0 4.29314,2.71356 4.29314,6.06091 z"
         sodipodi:ry="6.0609155"
         sodipodi:rx="4.2931485"
         sodipodi:cy="268.98889"
         sodipodi:cx="305.57114"
         id="path6021-5-9-8-6-0"
         style="opacity:0.62389377;fill:#1e1e1e;fill-opacity:1;stroke:#000000;stroke-width:0;stroke-linecap:butt;stroke-linejoin:miter;stroke-miterlimit:4;stroke-opacity:1;stroke-dasharray:none;stroke-dashoffset:0"
         sodipodi:type="arc" />
      <path
         transform="matrix(0.2570646,0.73429934,-0.73429934,0.2570646,380.20038,652.24825)"
         d="m 309.86428,268.98889 c 0,3.34735 -1.9221,6.06092 -4.29314,6.06092 -2.37104,0 -4.29315,-2.71357 -4.29315,-6.06092 0,-3.34735 1.92211,-6.06091 4.29315,-6.06091 2.37104,0 4.29314,2.71356 4.29314,6.06091 z"
         sodipodi:ry="6.0609155"
         sodipodi:rx="4.2931485"
         sodipodi:cy="268.98889"
         sodipodi:cx="305.57114"
         id="path6021-5-1-2-0-1"
         style="opacity:0.62389377;fill:#1e1e1e;fill-opacity:1;stroke:#000000;stroke-width:0;stroke-linecap:butt;stroke-linejoin:miter;stroke-miterlimit:4;stroke-opacity:1;stroke-dasharray:none;stroke-dashoffset:0"
         sodipodi:type="arc" />
      <path
         transform="matrix(-0.17316986,0.98489197,-0.98489197,-0.17316986,522.62879,675.46869)"
         d="m 309.86428,268.98889 c 0,3.34735 -1.9221,6.06092 -4.29314,6.06092 -2.37104,0 -4.29315,-2.71357 -4.29315,-6.06092 0,-3.34735 1.92211,-6.06091 4.29315,-6.06091 2.37104,0 4.29314,2.71356 4.29314,6.06091 z"
         sodipodi:ry="6.0609155"
         sodipodi:rx="4.2931485"
         sodipodi:cy="268.98889"
         sodipodi:cx="305.57114"
         id="path6021-3-2"
         style="opacity:0.62389377;fill:#1e1e1e;fill-opacity:1;stroke:#000000;stroke-width:0;stroke-linecap:butt;stroke-linejoin:miter;stroke-miterlimit:4;stroke-opacity:1;stroke-dasharray:none;stroke-dashoffset:0"
         sodipodi:type="arc" />
      <path
         transform="matrix(0.48873105,-0.78600278,0.62590861,-0.06873901,42.69213,1228.1185)"
         d="m 309.86428,268.98889 c 0,3.34735 -1.9221,6.06092 -4.29314,6.06092 -2.37104,0 -4.29315,-2.71357 -4.29315,-6.06092 0,-3.34735 1.92211,-6.06091 4.29315,-6.06091 2.37104,0 4.29314,2.71356 4.29314,6.06091 z"
         sodipodi:ry="6.0609155"
         sodipodi:rx="4.2931485"
         sodipodi:cy="268.98889"
         sodipodi:cx="305.57114"
         id="path6021-5-98-5"
         style="opacity:0.62389377;fill:#1e1e1e;fill-opacity:1;stroke:#000000;stroke-width:0;stroke-linecap:butt;stroke-linejoin:miter;stroke-miterlimit:4;stroke-opacity:1;stroke-dasharray:none;stroke-dashoffset:0"
         sodipodi:type="arc" />
      <path
         transform="matrix(0.35544198,-0.15925645,0.15925645,0.35544198,169.5238,914.13694)"
         d="m 309.86428,268.98889 c 0,3.34735 -1.9221,6.06092 -4.29314,6.06092 -2.37104,0 -4.29315,-2.71357 -4.29315,-6.06092 0,-3.34735 1.92211,-6.06091 4.29315,-6.06091 2.37104,0 4.29314,2.71356 4.29314,6.06091 z"
         sodipodi:ry="6.0609155"
         sodipodi:rx="4.2931485"
         sodipodi:cy="268.98889"
         sodipodi:cx="305.57114"
         id="path6021-5-9-8-0"
         style="opacity:0.62389377;fill:#1e1e1e;fill-opacity:1;stroke:#000000;stroke-width:0;stroke-linecap:butt;stroke-linejoin:miter;stroke-miterlimit:4;stroke-opacity:1;stroke-dasharray:none;stroke-dashoffset:0"
         sodipodi:type="arc" />
      <path
         transform="matrix(0.68497094,0.62247346,-0.04527146,0.62804231,168.25443,573.54313)"
         d="m 309.86428,268.98889 c 0,3.34735 -1.9221,6.06092 -4.29314,6.06092 -2.37104,0 -4.29315,-2.71357 -4.29315,-6.06092 0,-3.34735 1.92211,-6.06091 4.29315,-6.06091 2.37104,0 4.29314,2.71356 4.29314,6.06091 z"
         sodipodi:ry="6.0609155"
         sodipodi:rx="4.2931485"
         sodipodi:cy="268.98889"
         sodipodi:cx="305.57114"
         id="path6021-5-98-6-8-4"
         style="opacity:0.62389377;fill:#1e1e1e;fill-opacity:1;stroke:#000000;stroke-width:0;stroke-linecap:butt;stroke-linejoin:miter;stroke-miterlimit:4;stroke-opacity:1;stroke-dasharray:none;stroke-dashoffset:0"
         sodipodi:type="arc" />
      <path
         sodipodi:nodetypes="caaaaaaac"
         inkscape:connector-curvature="0"
         id="path6259"
         d="m 164.35012,895.30038 c 10.84873,0.95297 21.11251,6.64338 32.04387,7.24549 11.65755,0.6421 23.15472,-4.66331 34.80678,-3.9274 10.79515,0.68179 20.73381,7.23184 31.54155,7.66729 11.05977,0.44559 21.72906,-5.30883 32.79739,-5.22422 11.43622,0.0874 22.3695,6.21809 33.80209,5.91534 11.03918,-0.29233 21.26784,-6.83742 32.29505,-7.43128 10.5722,-0.56937 20.97172,4.37099 31.54154,3.75851 11.13149,-0.64503 21.69749,-6.75647 32.54623,-7.769"
         style="opacity:0.21681417;fill:none;stroke:#000000;stroke-width:2.99279833;stroke-linecap:butt;stroke-linejoin:miter;stroke-miterlimit:4;stroke-opacity:1;stroke-dasharray:none;stroke-dashoffset:0;marker-start:none;marker-end:none" />
      <path
         transform="matrix(0.09254065,0.37833563,-0.37833563,0.09254065,386.33195,788.42738)"
         d="m 309.86428,268.98889 c 0,3.34735 -1.9221,6.06092 -4.29314,6.06092 -2.37104,0 -4.29315,-2.71357 -4.29315,-6.06092 0,-3.34735 1.92211,-6.06091 4.29315,-6.06091 2.37104,0 4.29314,2.71356 4.29314,6.06091 z"
         sodipodi:ry="6.0609155"
         sodipodi:rx="4.2931485"
         sodipodi:cy="268.98889"
         sodipodi:cx="305.57114"
         id="path6021-5-9-8-6-0-7"
         style="opacity:0.62389377;fill:#1e1e1e;fill-opacity:1;stroke:#000000;stroke-width:0;stroke-linecap:butt;stroke-linejoin:miter;stroke-miterlimit:4;stroke-opacity:1;stroke-dasharray:none;stroke-dashoffset:0"
         sodipodi:type="arc" />
      <path
         transform="matrix(0.69939378,0.34077276,-0.34077276,0.69939378,274.28101,635.15084)"
         d="m 309.86428,268.98889 c 0,3.34735 -1.9221,6.06092 -4.29314,6.06092 -2.37104,0 -4.29315,-2.71357 -4.29315,-6.06092 0,-3.34735 1.92211,-6.06091 4.29315,-6.06091 2.37104,0 4.29314,2.71356 4.29314,6.06091 z"
         sodipodi:ry="6.0609155"
         sodipodi:rx="4.2931485"
         sodipodi:cy="268.98889"
         sodipodi:cx="305.57114"
         id="path6021-5-1-2-0-1-8"
         style="opacity:0.62389377;fill:#1e1e1e;fill-opacity:1;stroke:#000000;stroke-width:0;stroke-linecap:butt;stroke-linejoin:miter;stroke-miterlimit:4;stroke-opacity:1;stroke-dasharray:none;stroke-dashoffset:0"
         sodipodi:type="arc" />
      <path
         transform="matrix(0.57008878,0.82158309,-0.82158309,0.57008878,422.01817,546.69642)"
         d="m 309.86428,268.98889 c 0,3.34735 -1.9221,6.06092 -4.29314,6.06092 -2.37104,0 -4.29315,-2.71357 -4.29315,-6.06092 0,-3.34735 1.92211,-6.06091 4.29315,-6.06091 2.37104,0 4.29314,2.71356 4.29314,6.06091 z"
         sodipodi:ry="6.0609155"
         sodipodi:rx="4.2931485"
         sodipodi:cy="268.98889"
         sodipodi:cx="305.57114"
         id="path6021-3-2-3"
         style="opacity:0.62389377;fill:#1e1e1e;fill-opacity:1;stroke:#000000;stroke-width:0;stroke-linecap:butt;stroke-linejoin:miter;stroke-miterlimit:4;stroke-opacity:1;stroke-dasharray:none;stroke-dashoffset:0"
         sodipodi:type="arc" />
      <path
         transform="matrix(-0.50798939,-0.77369579,0.20054562,-0.59688198,362.59967,1371.7708)"
         d="m 309.86428,268.98889 c 0,3.34735 -1.9221,6.06092 -4.29314,6.06092 -2.37104,0 -4.29315,-2.71357 -4.29315,-6.06092 0,-3.34735 1.92211,-6.06091 4.29315,-6.06091 2.37104,0 4.29314,2.71356 4.29314,6.06091 z"
         sodipodi:ry="6.0609155"
         sodipodi:rx="4.2931485"
         sodipodi:cy="268.98889"
         sodipodi:cx="305.57114"
         id="path6021-5-98-6-8-5"
         style="opacity:0.62389377;fill:#1e1e1e;fill-opacity:1;stroke:#000000;stroke-width:0;stroke-linecap:butt;stroke-linejoin:miter;stroke-miterlimit:4;stroke-opacity:1;stroke-dasharray:none;stroke-dashoffset:0"
         sodipodi:type="arc" />
      <path
         transform="matrix(0.00478679,-0.38945951,0.38945951,0.00478679,173.57837,1114.1718)"
         d="m 309.86428,268.98889 c 0,3.34735 -1.9221,6.06092 -4.29314,6.06092 -2.37104,0 -4.29315,-2.71357 -4.29315,-6.06092 0,-3.34735 1.92211,-6.06091 4.29315,-6.06091 2.37104,0 4.29314,2.71356 4.29314,6.06091 z"
         sodipodi:ry="6.0609155"
         sodipodi:rx="4.2931485"
         sodipodi:cy="268.98889"
         sodipodi:cx="305.57114"
         id="path6021-5-9-8-6-0-1"
         style="opacity:0.62389377;fill:#1e1e1e;fill-opacity:1;stroke:#000000;stroke-width:0;stroke-linecap:butt;stroke-linejoin:miter;stroke-miterlimit:4;stroke-opacity:1;stroke-dasharray:none;stroke-dashoffset:0"
         sodipodi:type="arc" />
      <path
         transform="matrix(0.64152775,0.66715856,-0.08743397,0.62357192,119.06246,580.95271)"
         d="m 309.86428,268.98889 c 0,3.34735 -1.9221,6.06092 -4.29314,6.06092 -2.37104,0 -4.29315,-2.71357 -4.29315,-6.06092 0,-3.34735 1.92211,-6.06091 4.29315,-6.06091 2.37104,0 4.29314,2.71356 4.29314,6.06091 z"
         sodipodi:ry="6.0609155"
         sodipodi:rx="4.2931485"
         sodipodi:cy="268.98889"
         sodipodi:cx="305.57114"
         id="path6021-5-98-6-8-0"
         style="opacity:0.62389377;fill:#1e1e1e;fill-opacity:1;stroke:#000000;stroke-width:0;stroke-linecap:butt;stroke-linejoin:miter;stroke-miterlimit:4;stroke-opacity:1;stroke-dasharray:none;stroke-dashoffset:0"
         sodipodi:type="arc" />
      <path
         transform="matrix(0.6748754,0.38706708,-0.38706708,0.6748754,239.45586,641.73985)"
         d="m 309.86428,268.98889 c 0,3.34735 -1.9221,6.06092 -4.29314,6.06092 -2.37104,0 -4.29315,-2.71357 -4.29315,-6.06092 0,-3.34735 1.92211,-6.06091 4.29315,-6.06091 2.37104,0 4.29314,2.71356 4.29314,6.06091 z"
         sodipodi:ry="6.0609155"
         sodipodi:rx="4.2931485"
         sodipodi:cy="268.98889"
         sodipodi:cx="305.57114"
         id="path6021-5-1-2-0-1-4"
         style="opacity:0.62389377;fill:#1e1e1e;fill-opacity:1;stroke:#000000;stroke-width:0;stroke-linecap:butt;stroke-linejoin:miter;stroke-miterlimit:4;stroke-opacity:1;stroke-dasharray:none;stroke-dashoffset:0"
         sodipodi:type="arc" />
      <path
         transform="matrix(0.04857125,0.92428309,-0.47414737,0.41433189,325.00403,446.88235)"
         d="m 309.86428,268.98889 c 0,3.34735 -1.9221,6.06092 -4.29314,6.06092 -2.37104,0 -4.29315,-2.71357 -4.29315,-6.06092 0,-3.34735 1.92211,-6.06091 4.29315,-6.06091 2.37104,0 4.29314,2.71356 4.29314,6.06091 z"
         sodipodi:ry="6.0609155"
         sodipodi:rx="4.2931485"
         sodipodi:cy="268.98889"
         sodipodi:cx="305.57114"
         id="path6021-5-98-6-8"
         style="opacity:0.62389377;fill:#1e1e1e;fill-opacity:1;stroke:#000000;stroke-width:0;stroke-linecap:butt;stroke-linejoin:miter;stroke-miterlimit:4;stroke-opacity:1;stroke-dasharray:none;stroke-dashoffset:0"
         sodipodi:type="arc" />
      <path
         transform="matrix(-0.20050808,0.33391336,-0.33391336,-0.20050808,394.37193,781.96745)"
         d="m 309.86428,268.98889 c 0,3.34735 -1.9221,6.06092 -4.29314,6.06092 -2.37104,0 -4.29315,-2.71357 -4.29315,-6.06092 0,-3.34735 1.92211,-6.06091 4.29315,-6.06091 2.37104,0 4.29314,2.71356 4.29314,6.06091 z"
         sodipodi:ry="6.0609155"
         sodipodi:rx="4.2931485"
         sodipodi:cy="268.98889"
         sodipodi:cx="305.57114"
         id="path6021-5-9-8-6-0-0"
         style="opacity:0.62389377;fill:#1e1e1e;fill-opacity:1;stroke:#000000;stroke-width:0;stroke-linecap:butt;stroke-linejoin:miter;stroke-miterlimit:4;stroke-opacity:1;stroke-dasharray:none;stroke-dashoffset:0"
         sodipodi:type="arc" />
      <path
         transform="matrix(0.2570646,0.73429934,-0.73429934,0.2570646,363.86854,557.11893)"
         d="m 309.86428,268.98889 c 0,3.34735 -1.9221,6.06092 -4.29314,6.06092 -2.37104,0 -4.29315,-2.71357 -4.29315,-6.06092 0,-3.34735 1.92211,-6.06091 4.29315,-6.06091 2.37104,0 4.29314,2.71356 4.29314,6.06091 z"
         sodipodi:ry="6.0609155"
         sodipodi:rx="4.2931485"
         sodipodi:cy="268.98889"
         sodipodi:cx="305.57114"
         id="path6021-5-1-2-0-1-6"
         style="opacity:0.62389377;fill:#1e1e1e;fill-opacity:1;stroke:#000000;stroke-width:0;stroke-linecap:butt;stroke-linejoin:miter;stroke-miterlimit:4;stroke-opacity:1;stroke-dasharray:none;stroke-dashoffset:0"
         sodipodi:type="arc" />
      <path
         transform="matrix(-0.68492533,0.62252365,-0.62086824,-0.10492509,706.03625,651.93176)"
         d="m 309.86428,268.98889 c 0,3.34735 -1.9221,6.06092 -4.29314,6.06092 -2.37104,0 -4.29315,-2.71357 -4.29315,-6.06092 0,-3.34735 1.92211,-6.06091 4.29315,-6.06091 2.37104,0 4.29314,2.71356 4.29314,6.06091 z"
         sodipodi:ry="6.0609155"
         sodipodi:rx="4.2931485"
         sodipodi:cy="268.98889"
         sodipodi:cx="305.57114"
         id="path6021-5-98-6-8-1"
         style="opacity:0.62389377;fill:#1e1e1e;fill-opacity:1;stroke:#000000;stroke-width:0;stroke-linecap:butt;stroke-linejoin:miter;stroke-miterlimit:4;stroke-opacity:1;stroke-dasharray:none;stroke-dashoffset:0"
         sodipodi:type="arc" />
      <path
         transform="matrix(-0.38543345,0.05605957,-0.05605957,-0.38543345,480.86433,906.49238)"
         d="m 309.86428,268.98889 c 0,3.34735 -1.9221,6.06092 -4.29314,6.06092 -2.37104,0 -4.29315,-2.71357 -4.29315,-6.06092 0,-3.34735 1.92211,-6.06091 4.29315,-6.06091 2.37104,0 4.29314,2.71356 4.29314,6.06091 z"
         sodipodi:ry="6.0609155"
         sodipodi:rx="4.2931485"
         sodipodi:cy="268.98889"
         sodipodi:cx="305.57114"
         id="path6021-5-9-8-6-0-8"
         style="opacity:0.62389377;fill:#1e1e1e;fill-opacity:1;stroke:#000000;stroke-width:0;stroke-linecap:butt;stroke-linejoin:miter;stroke-miterlimit:4;stroke-opacity:1;stroke-dasharray:none;stroke-dashoffset:0"
         sodipodi:type="arc" />
      <path
         transform="matrix(-0.40588174,0.66373017,-0.66373017,-0.40588174,628.51582,743.79699)"
         d="m 309.86428,268.98889 c 0,3.34735 -1.9221,6.06092 -4.29314,6.06092 -2.37104,0 -4.29315,-2.71357 -4.29315,-6.06092 0,-3.34735 1.92211,-6.06091 4.29315,-6.06091 2.37104,0 4.29314,2.71356 4.29314,6.06091 z"
         sodipodi:ry="6.0609155"
         sodipodi:rx="4.2931485"
         sodipodi:cy="268.98889"
         sodipodi:cx="305.57114"
         id="path6021-5-1-2-0-1-9"
         style="opacity:0.62389377;fill:#1e1e1e;fill-opacity:1;stroke:#000000;stroke-width:0;stroke-linecap:butt;stroke-linejoin:miter;stroke-miterlimit:4;stroke-opacity:1;stroke-dasharray:none;stroke-dashoffset:0"
         sodipodi:type="arc" />
      <path
         sodipodi:nodetypes="cc"
         inkscape:connector-curvature="0"
         id="path7088"
         d="m 168.68276,883.33444 c 82.61905,7.61905 167.02382,6.66666 250.00001,-0.71429"
         style="opacity:0.08407078;fill:none;stroke:#000000;stroke-width:2;stroke-linecap:butt;stroke-linejoin:miter;stroke-miterlimit:4;stroke-opacity:1;stroke-dasharray:none" />
      <path
         sodipodi:nodetypes="cc"
         inkscape:connector-curvature="0"
         id="path7090"
         d="m 420.46848,909.04872 c -82.7381,9.28572 -166.54762,11.07143 -249.28572,3.21429"
         style="opacity:0.08407078;fill:none;stroke:#000000;stroke-width:2;stroke-linecap:butt;stroke-linejoin:miter;stroke-miterlimit:4;stroke-opacity:1;stroke-dasharray:none" />
    </g>
    <path
       style="fill:#ffffff;fill-opacity:1;stroke:#000000;stroke-width:1;stroke-linecap:butt;stroke-linejoin:miter;stroke-miterlimit:4;stroke-opacity:1;stroke-dasharray:none;stroke-dashoffset:0"
       d="m 478.95503,121.61567 c 2.71941,5.47658 2.30847,12.9089 -1.79897,14.94846 -4.10744,2.03955 -12.32026,-1.99672 -15.03966,-7.4733 7.71236,-3.2373 11.64448,-4.73956 16.83863,-7.47516 z"
       id="path5273"
       inkscape:connector-curvature="0"
       sodipodi:nodetypes="cscc" />
    <path
       style="fill:#000000;fill-opacity:1;stroke:#000000;stroke-width:0;stroke-linecap:butt;stroke-linejoin:miter;stroke-miterlimit:4;stroke-opacity:1;stroke-dashoffset:0"
       d="m 473.49839,124.29478 c 1.51628,3.05362 1.28715,7.19771 -1.00306,8.33492 -2.29021,1.13721 -6.86949,-1.11332 -8.38577,-4.16694 4.30024,-1.80504 6.4927,-2.64267 9.38883,-4.16798 z"
       id="path5273-6"
       inkscape:connector-curvature="0"
       sodipodi:nodetypes="cscc" />
  </g>
</svg>
