<?xml version="1.0" encoding="UTF-8" standalone="no"?>
<!-- Created with Inkscape (http://www.inkscape.org/) -->

<svg
   xmlns:dc="http://purl.org/dc/elements/1.1/"
   xmlns:cc="http://creativecommons.org/ns#"
   xmlns:rdf="http://www.w3.org/1999/02/22-rdf-syntax-ns#"
   xmlns:svg="http://www.w3.org/2000/svg"
   xmlns="http://www.w3.org/2000/svg"
   xmlns:sodipodi="http://sodipodi.sourceforge.net/DTD/sodipodi-0.dtd"
   xmlns:inkscape="http://www.inkscape.org/namespaces/inkscape"
   width="744.09448819"
   height="1052.3622047"
   id="svg2"
   version="1.1"
   inkscape:version="0.48.4 r9939"
   sodipodi:docname="heart.svg"
   inkscape:export-filename="E:\Environmental Shenanigans\Environmental Shenanigans\Environmental-Shenanigans\Assets\Sprites\Characters\heart.png"
   inkscape:export-xdpi="500"
   inkscape:export-ydpi="500">
  <defs
     id="defs4" />
  <sodipodi:namedview
     id="base"
     pagecolor="#ffffff"
     bordercolor="#666666"
     borderopacity="1.0"
     inkscape:pageopacity="0.0"
     inkscape:pageshadow="2"
     inkscape:zoom="1.2910499"
     inkscape:cx="375.64532"
     inkscape:cy="851.20335"
     inkscape:document-units="px"
     inkscape:current-layer="layer1"
     showgrid="false"
     inkscape:window-width="1680"
     inkscape:window-height="987"
     inkscape:window-x="-8"
     inkscape:window-y="-8"
     inkscape:window-maximized="1" />
  <metadata
     id="metadata7">
    <rdf:RDF>
      <cc:Work
         rdf:about="">
        <dc:format>image/svg+xml</dc:format>
        <dc:type
           rdf:resource="http://purl.org/dc/dcmitype/StillImage" />
        <dc:title></dc:title>
      </cc:Work>
    </rdf:RDF>
  </metadata>
  <g
     inkscape:label="Layer 1"
     inkscape:groupmode="layer"
     id="layer1">
    <path
       style="fill:#ff2a7f;fill-opacity:1;stroke:#6a0a48;stroke-width:10;stroke-linecap:butt;stroke-linejoin:miter;stroke-miterlimit:4;stroke-opacity:1;stroke-dasharray:none;stroke-dashoffset:0"
       d="m 175.52541,337.69197 c -91.866606,-32.11846 -41.98087,-147.69307 1.64309,-72.13412 49.14608,-74.13516 96.47031,39.31996 -1.64309,72.13412 z"
       id="path2987"
       inkscape:connector-curvature="0"
       sodipodi:nodetypes="ccc" />
    <path
       style="fill:#ffd5e5;fill-opacity:1;stroke:#6a0a48;stroke-width:0;stroke-linecap:butt;stroke-linejoin:miter;stroke-miterlimit:4;stroke-opacity:1;stroke-dashoffset:0"
       d="m 144.0684,258.02302 c -2.55404,3.44298 -5.33764,10.88649 -9.18697,8.99971 -3.95556,-1.93884 -1.17127,-9.64479 1.52681,-13.12703 2.68834,-3.46966 9.36108,-8.01299 12.28522,-4.73962 2.22084,2.48607 -2.63898,6.1896 -4.62506,8.86694 z"
       id="path3758"
       inkscape:connector-curvature="0"
       sodipodi:nodetypes="aaaaa" />
    <path
       style="fill:#ffd5e5;fill-opacity:1;stroke:#6a0a48;stroke-width:0;stroke-linecap:butt;stroke-linejoin:miter;stroke-miterlimit:4;stroke-opacity:1;stroke-dashoffset:0"
       d="m 200.68876,261.88026 c -3.32246,3.69914 -9.16058,10.8627 -12.86615,7.54741 -3.17553,-2.84108 2.22573,-8.62944 5.20599,-11.67473 3.1174,-3.18542 8.91221,-8.83138 12.09158,-5.70781 2.56502,2.51999 -2.02867,7.15997 -4.43142,9.83513 z"
       id="path3758-1"
       inkscape:connector-curvature="0"
       sodipodi:nodetypes="aaaaa" />
    <path
       style="fill:#ff2a7f;fill-opacity:1;stroke:#6a0a48;stroke-width:9.87257481;stroke-linecap:butt;stroke-linejoin:miter;stroke-miterlimit:4;stroke-opacity:1;stroke-dasharray:none;stroke-dashoffset:0"
       d="m 311.42834,333.01576 c -99.92033,-28.7819 -45.66124,-132.35027 1.78713,-64.64061 53.45459,-66.43377 104.92763,35.23528 -1.78713,64.64061 z"
       id="path2987-1"
       inkscape:connector-curvature="0"
       sodipodi:nodetypes="ccc" />
    <path
       style="fill:#ff2a7f;fill-opacity:1;stroke:#6a0a48;stroke-width:9.15988827;stroke-linecap:butt;stroke-linejoin:miter;stroke-miterlimit:4;stroke-opacity:1;stroke-dasharray:none;stroke-dashoffset:0"
       d="m 610.62784,321.48614 c -105.47541,-23.47154 -48.19979,-107.93118 1.88647,-52.7142 56.4264,-54.1765 110.76109,28.73425 -1.88647,52.7142 z"
       id="path2987-1-0"
       inkscape:connector-curvature="0"
       sodipodi:nodetypes="ccc" />
    <path
       style="fill:#ff2a7f;fill-opacity:1;stroke:#6a0a48;stroke-width:10.06915188;stroke-linecap:butt;stroke-linejoin:miter;stroke-miterlimit:4;stroke-opacity:1;stroke-dasharray:none;stroke-dashoffset:0"
       d="m 54.024267,346.55557 c -82.671135,-36.1863 -37.77876,-166.39859 1.478623,-81.27 44.226762,-83.52448 86.81403,44.29988 -1.478623,81.27 z"
       id="path2987-8"
       inkscape:connector-curvature="0"
       sodipodi:nodetypes="ccc" />
    <path
       style="fill:#ff2a7f;fill-opacity:1;stroke:#6a0a48;stroke-width:9.77087021;stroke-linecap:butt;stroke-linejoin:miter;stroke-miterlimit:4;stroke-opacity:1;stroke-dasharray:none;stroke-dashoffset:0"
       d="m 459.20824,327.64466 c -105.22728,-26.77013 -48.08639,-123.09939 1.88205,-60.12243 56.29367,-61.79025 110.50054,32.77244 -1.88205,60.12243 z"
       id="path2987-1-8"
       inkscape:connector-curvature="0"
       sodipodi:nodetypes="ccc" />
    <path
       style="fill:#ffd5e5;fill-opacity:1;stroke:#6a0a48;stroke-width:0;stroke-linecap:butt;stroke-linejoin:miter;stroke-miterlimit:4;stroke-opacity:1;stroke-dashoffset:0"
       d="m 27.005531,256.67281 c -1.86973,3.85763 -3.221589,11.68877 -7.354495,10.55019 -4.246961,-1.16999 -2.943195,-9.25913 -0.939229,-13.1821 1.996732,-3.90881 7.708938,-9.61302 11.190445,-6.94007 2.644151,2.03005 -1.442776,6.57219 -2.896721,9.57198 z"
       id="path3758-2"
       inkscape:connector-curvature="0"
       sodipodi:nodetypes="aaaaa" />
    <path
       style="fill:#ffd5e5;fill-opacity:1;stroke:#6a0a48;stroke-width:0;stroke-linecap:butt;stroke-linejoin:miter;stroke-miterlimit:4;stroke-opacity:1;stroke-dashoffset:0"
       d="m 276.78961,264.97855 c -2.55404,3.44298 -5.33764,10.88649 -9.18697,8.99971 -3.95556,-1.93884 -1.17127,-9.64479 1.52681,-13.12703 2.68834,-3.46966 9.36108,-8.01299 12.28522,-4.73962 2.22084,2.48607 -2.63898,6.1896 -4.62506,8.86694 z"
       id="path3758-4"
       inkscape:connector-curvature="0"
       sodipodi:nodetypes="aaaaa" />
    <path
       style="fill:#ffd5e5;fill-opacity:1;stroke:#6a0a48;stroke-width:0;stroke-linecap:butt;stroke-linejoin:miter;stroke-miterlimit:4;stroke-opacity:1;stroke-dashoffset:0"
       d="m 421.53661,264.68483 c -3.08059,2.98114 -7.0391,9.87204 -10.52982,7.38364 -3.58706,-2.55707 0.41487,-9.70679 3.64396,-12.70322 3.21744,-2.98559 10.54094,-6.38173 12.89303,-2.6759 1.78638,2.81452 -3.61164,5.67727 -6.00717,7.99548 z"
       id="path3758-5"
       inkscape:connector-curvature="0"
       sodipodi:nodetypes="aaaaa" />
    <path
       style="fill:#ffd5e5;fill-opacity:1;stroke:#6a0a48;stroke-width:0;stroke-linecap:butt;stroke-linejoin:miter;stroke-miterlimit:4;stroke-opacity:1;stroke-dashoffset:0"
       d="m 575.5064,268.46054 c -4.00268,1.53485 -10.34572,6.32235 -12.58152,2.66469 -2.2975,-3.7586 4.18695,-8.76718 8.33224,-10.25787 4.13032,-1.48531 12.19897,-1.73863 12.91003,2.59264 0.54003,3.28954 -5.54817,3.807 -8.66075,5.00054 z"
       id="path3758-51"
       inkscape:connector-curvature="0"
       sodipodi:nodetypes="aaaaa" />
    <path
       style="fill:#ffd5e5;fill-opacity:1;stroke:#6a0a48;stroke-width:0;stroke-linecap:butt;stroke-linejoin:miter;stroke-miterlimit:4;stroke-opacity:1;stroke-dashoffset:0"
       d="m 79.542511,258.823 c -2.965724,3.99084 -8.115571,11.66414 -12.112156,8.70615 -3.424919,-2.53489 1.417261,-8.79844 4.102787,-12.10656 2.809105,-3.46035 8.056327,-9.61855 11.511222,-6.80274 2.787303,2.2717 -1.357088,7.31703 -3.501853,10.20315 z"
       id="path3758-1-7"
       inkscape:connector-curvature="0"
       sodipodi:nodetypes="aaaaa" />
    <path
       style="fill:#ffd5e5;fill-opacity:1;stroke:#6a0a48;stroke-width:0;stroke-linecap:butt;stroke-linejoin:miter;stroke-miterlimit:4;stroke-opacity:1;stroke-dashoffset:0"
       d="m 337.69201,266.84531 c -3.54568,3.48576 -9.81722,10.2731 -13.30984,6.73418 -2.99305,-3.03272 2.75711,-8.47463 5.92066,-11.32905 3.30912,-2.98576 9.44323,-8.26112 12.42257,-4.94621 2.40365,2.67435 -2.46921,7.02023 -5.03339,9.54108 z"
       id="path3758-1-1"
       inkscape:connector-curvature="0"
       sodipodi:nodetypes="aaaaa" />
    <path
       style="fill:#ffd5e5;fill-opacity:1;stroke:#6a0a48;stroke-width:0;stroke-linecap:butt;stroke-linejoin:miter;stroke-miterlimit:4;stroke-opacity:1;stroke-dashoffset:0"
       d="m 488.15169,266.16013 c -3.92177,3.05649 -10.92978,9.08045 -13.99386,5.16461 -2.6258,-3.35572 3.71008,-8.10286 7.17989,-10.57595 3.62947,-2.5869 10.32769,-7.12458 12.90754,-3.4901 2.08135,2.93218 -3.25742,6.69103 -6.09357,8.90144 z"
       id="path3758-1-15"
       inkscape:connector-curvature="0"
       sodipodi:nodetypes="aaaaa" />
    <path
       style="fill:#ffd5e5;fill-opacity:1;stroke:#6a0a48;stroke-width:0;stroke-linecap:butt;stroke-linejoin:miter;stroke-miterlimit:4;stroke-opacity:1;stroke-dashoffset:0"
       d="m 637.02337,270.07364 c -4.23018,2.61303 -11.8503,7.84123 -14.47152,3.61611 -2.24628,-3.62077 4.56717,-7.65259 8.28478,-9.73469 3.88867,-2.17791 11.0396,-5.9622 13.20997,-2.06931 1.75099,3.14066 -3.96403,6.29819 -7.02323,8.18789 z"
       id="path3758-1-2"
       inkscape:connector-curvature="0"
       sodipodi:nodetypes="aaaaa" />
  </g>
</svg>
